<svg version="1.2" xmlns="http://www.w3.org/2000/svg" viewBox="0 0 109 145" width="53" height="55">
	<title>address</title>
	<style>
		.s0 { fill: #ffffff } 
	</style>
	<path id="Icon" fill-rule="evenodd" class="s0" d="m60.5 64.9c3.2-3.9 10.4-13.6 10.4-19 0-6.6-5.3-11.9-11.9-11.9-6.6 0-11.9 5.3-11.9 11.9 0 5.4 7.2 15.1 10.4 19 0.8 1 2.2 1 3 0zm11.2 19l14.4-5.8c0.9-0.3 1.5-1.2 1.5-2.2v-26.8c0-1.7-1.7-2.9-3.3-2.3l-11.5 4.7q-0.1 0.1-0.2 0.3-0.4 1-0.9 2.1v30zm-39.8-31.3c-0.9 0.3-1.5 1.2-1.5 2.2v26.8c0 1.7 1.7 2.9 3.3 2.2l12.6-5v-24.9q-0.5-1.1-0.9-2.1c-0.6-1.3-1.1-2.7-1.3-4.1l-12.2 4.9zm36.6 6.7c-2 3.1-4.2 5.9-5.6 7.6-2 2.6-5.8 2.6-7.9 0-1.3-1.7-3.5-4.5-5.5-7.6v19.3l19 5.4z"/>
</svg>