<svg version="1.2" xmlns="http://www.w3.org/2000/svg" viewBox="0 0 139 151" width="53" height="55">
	<title>browser</title>
	<style>
		.s0 { fill: #ffffff } 
	</style>
	<path id="Icon" fill-rule="evenodd" class="s0" d="m63.3 53.9l1.2 2.1c0.3 0.5 0.5 1.2 0.5 1.8v4.9c0 0.4 0.2 0.9 0.5 1.2 0.7 0.7 1.9 0.7 2.6-0.2l1.6-1.9c0.5-0.7 1.5-0.9 2.3-0.6l1.8 0.9q0.6 0.3 1.2 0.3c0.8 0 1.5-0.3 2.1-0.8l0.4-0.5c0.4-0.3 0.9-0.4 1.3-0.2l3.4 1.7c1 0.5 1.5 1.4 1.5 2.4 0 1.3-0.8 2.3-2 2.6l-4.2 1.1c-0.8 0.2-1.7 0.2-2.6-0.1l-3.7-1.3q-0.6-0.2-1.2-0.2c-0.8 0-1.6 0.3-2.3 0.8l-4.6 3.4c-1.2 0.9-1.8 2.3-1.8 3.8v3.3c0 3.1 2.5 5.6 5.6 5.6h3.7c1.1 0 1.9 0.8 1.9 1.9v5.6c0 2.1 1.7 3.7 3.7 3.7 1.2 0 2.3-0.5 3-1.5l3-4c1-1.3 1.5-2.8 1.5-4.5v-1.4c0-0.4 0.3-0.8 0.8-0.9l0.6-0.2c1.4-0.3 2.4-1.6 2.4-3 0-0.9-0.3-1.7-0.9-2.2l-3.9-4c-0.5-0.4-0.5-1.1 0-1.5 0.6-0.7 1.6-0.9 2.5-0.6l1.7 0.5c1.4 0.5 3-0.2 3.6-1.5 0.5-0.8 1.4-1.3 2.3-1.1l3.2 0.7c-2.9-10.3-12.3-17.9-23.5-17.9-3.2 0-6.3 0.7-9.2 1.8zm-20.8 22.6c0-16.6 13.4-30 30-30 16.6 0 30 13.4 30 30 0 16.6-13.4 30-30 30-16.6 0-30-13.4-30-30z"/>
</svg>