<svg version="1.2" xmlns="http://www.w3.org/2000/svg" viewBox="0 0 115 133" width="53" height="55">
	<title>education</title>
	<style>
		.s0 { fill: #ff7251 } 
	</style>
	<path id="Icon" fill-rule="evenodd" class="s0" d="m109.2 60.8l-36.8 13.4c-2.6 0.9-5.4 0.9-8-0.1l-21.9-8q-0.4 0.3-0.7 0.5c-5.9 4.3-6 12.1-4.8 14.6 0.9 2 3.2 10.6 1.6 17.2l-0.2 0.5c-0.4 1.2-1.7 1.9-2.9 1.7l-7.7-1.7c-1.9-0.4-2.7-2.6-1.5-4.1 1.2-1.7 2.7-4 3.9-6.8 2.5-6 1.5-11.3 3.1-15.7 1-2.7 1.8-5.2 4.7-7.9l-10.1-3.7c-2.7-1-2.7-4.9 0-5.9l37.1-13.6c2.1-0.8 4.4-0.8 6.4-0.1l37.8 13.4c3 1.1 3 5.3 0 6.3zm-11.2-3.8l-28.5-10c-0.8-0.3-1.7-0.3-2.5 0l-27.9 10c-0.7 0.2-0.7 1.2 0 1.4l5.3 1.9q1.3-0.7 2.8-1.3c8.9-3.9 17.4-6.6 21-7.8 0.9-0.3 1.8 0.1 2.3 0.9 0.5 1 0 2.3-1.1 2.7-4 1.5-12.5 4.6-19.3 7.5l17.5 6.2c0.7 0.3 1.4 0.3 2.1 0l28.3-10c0.6-0.3 0.6-1.2 0-1.5zm-47 16.8l-1.6 16.1c-0.1 0.2 0.1 0.5 0.3 0.7 1.5 0.8 7.2 3.5 18.4 3.9 11.4 0.4 18-3.5 19.5-4.5 0.3-0.2 0.4-0.5 0.3-0.7l-1.9-15.5 6.1-2 2.1 18.4c0.2 1.4-0.2 2.7-1.2 3.6-2.5 2.6-8.3 6.6-24.3 6.8-16.6 0.2-23.2-5.2-25.1-7.4-0.4-0.6-0.6-1.3-0.5-2l1.7-19.4z"/>
</svg>