<svg version="1.2" xmlns="http://www.w3.org/2000/svg" viewBox="0 0 199 193" width="53" height="55">
	<title>gyming</title>
	<style>
		.s0 { fill: #ff7251 } 
	</style>
	<path id="Icon" fill-rule="evenodd" class="s0" d="m55.3 68.9q0.1 0 0.2 0 0.1 0 0.2 0c1.8 0.1 3.7 0.8 4.9 2.2 1.3 1.5 1.9 3.2 1.9 5.1q0 1 0 2.1 0 4 0 8.1 0 11.4 0 22.7 0 4.3 0 8.7c0 1.6 0.2 3.6-0.4 5.2-0.7 2.1-2.2 3.6-4.3 4.4-0.9 0.4-1.8 0.4-2.8 0.4q-2.5 0-5 0c-1.9 0-3.8 0.1-5.7-0.7-2.4-1.2-3.8-3.9-3.8-6.6q0-6.9 0-13.8-1.8 0-3.5 0-0.6 0-1.1 0c-1.1 0-2.1-0.4-3-1.1-1.3-1.1-1.5-2.7-1.5-4.2q0-3.3 0-6.6c0-0.5 0-1 0.2-1.5 0.5-1.9 2.2-3.2 4.1-3.3 0.7 0 1.4 0 2 0q1.4 0 2.8 0 0-1.1 0-2.2 0-4 0-8.1c0-1.7-0.1-3.6 0.2-5.3 0.5-2.6 2.8-4.8 5.3-5.3 1.1-0.2 2.2-0.2 3.2-0.2q3.1 0 6.1 0zm-14.8 24.2q1.6-1.5 3.1-3.1-1.5 0-3.1 0 0 1.6 0 3.1zm3.1 13.6q-1.5-1.5-3.1-3.1 0 1.6 0 3.1 1.6 0 3.1 0zm11.9-31.7q0 0 0 0 0 0 0 0 0.1 0 0.1 0 0.1 0 0.1 0 0 0.1 0.1 0.1 0 0 0 0 0.1 0 0.1 0 0 0 0 0 0.1 0.1 0.1 0.1 0 0 0 0 0.1 0 0.1 0 0 0 0 0 0 0 0 0c0.2 0.1-0.1-0.2-0.3-0.2 1.5-0.2 2.8-1.5 2.7-3-0.1-1.6-1.2-3-2.8-3.1q-0.1 0-0.2 0-0.1 0-0.2 0c-0.9 0-1.7 0.5-2.3 1.3v1.8h-0.6c0.1 1.7 1.4 3 3.1 3zm0.2 0q0 0 0 0c-0.2-0.1 0-0.1 0.1 0q-0.1 0-0.1 0 0.3 0.1 0 0 0 0 0 0-0.1 0-0.2 0-0.1 0-0.2 0 0.2 0 0.4 0zm0.4 0.3q0 0 0-0.1 0 0 0 0 0 0.1 0 0.1 0-0.1-0.1-0.1-0.1-0.1-0.2-0.1-0.2 0-0.3-0.1 0 0 0 0-3.4 0-6.9 0-0.5 0-1 0c0.1 0 0 0-0.1 0q-0.1 0-0.2 0 0 0.1 0 0.1 0.1-0.1 0.1-0.1 0 0-0.1 0.1-0.1-0.1-0.1-0.1 0 0-0.1 0.1 0 0 0 0-0.1 0.1-0.1 0.1 0 0 0 0 0 0 0 0-0.1 0-0.1 0.1 0 0 0 0 0 0 0 0-0.1 0-0.1 0.1 0 0 0 0 0 0.1 0 0.1 0-0.1 0-0.1 0 0-0.1 0.1 0 0-0.1 0.1 0.1-0.1 0.1-0.1 0 0 0 0 0 0.1 0 0.1c0-0.1 0 0-0.1 0.1 0 0.1 0 0.1 0 0.1q0 0 0 0 0 0.1 0 0.2 0 0 0-0.1 0 0 0 0 0 0.1 0 0.2 0 2.5 0 5.1 0 5.9 0 11.9c0 1.6-1.4 3-3 3q-3 0-6.1 0 0 2.3 0 4.5 0.4 0 0.8 0 2.7 0 5.3 0c1.6 0 3 1.4 3 3q0 0.3 0 0.6c0 5.5-0.1 11.1 0 16.6q0 0 0 0.1 0-0.1 0-0.2 0 0.2 0.1 0.3 0 0 0 0-0.1 0-0.1-0.1 0 0.1 0.1 0.2 0 0 0 0.1 0.1 0.1 0.1 0.1 0 0 0 0 0.1 0.1 0.1 0.2c0.1 0 0.2 0.1 0.3 0.1q0 0 0 0.1 0 0 0.3 0 0 0 0 0 0.1 0 0.2 0.1-0.1-0.1-0.1-0.1 0.2 0 0.4 0 2.4 0 4.9 0 1 0 2.1 0 0.2 0 0.5 0 0 0 0 0 0 0 0 0 0.1 0 0.3 0c0.1-0.1 0.2-0.2 0.3-0.2q0-0.1 0.1-0.1 0-0.1 0-0.1 0 0 0 0 0 0 0 0 0.1-0.1 0.1-0.2 0 0 0 0 0 0 0.1-0.1 0 0 0 0-0.1 0-0.1 0.1 0-0.1 0.1-0.3 0 0 0 0 0-0.1 0-0.2 0-7.2 0-14.3 0-10.9 0-21.8 0-3.5 0-7 0-0.8 0-1.5 0 0 0-0.1 0 0 0 0 0 0 0 0-0.1-0.1-0.1-0.2 0 0 0.1 0 0 0 0 0-0.1 0-0.1 0 0-0.1 0-0.1 0 0 0 0c0.1 0 0.1-0.1-0.1-0.2q0 0-0.1-0.1zm0.3 0.5q0 0 0 0 0 0 0 0zm0 0.2q0-0.1 0-0.3 0 0 0 0 0 0.1 0 0.2 0 0.1 0 0.1zm-0.1-0.4q0.1 0 0.1 0.1 0 0 0 0 0 0-0.1-0.1zm0.1 45.4q0 0 0 0 0 0 0 0 0-0.1 0-0.3 0 0.1 0 0.1 0 0.1 0 0.2zm0 0q0 0 0 0 0 0 0-0.1 0 0.1 0 0.1zm-0.2 0.4q0 0-0.1 0 0 0.1 0 0.1 0 0-0.1 0 0 0.1-0.1 0.1 0 0 0 0 0 0-0.1 0 0 0 0 0.1-0.1 0-0.1 0-0.1 0-0.2 0-0.1 0-0.2 0.1 0.2-0.1 0.4-0.1 0 0 0 0c-0.3 0.2 0.6-0.1 0.2-0.1q0.1 0 0.2-0.1c-0.1 0.3 0.6-0.6 0.2-0.2q0 0-0.1 0 0 0 0 0 0 0 0 0.1 0 0 0 0zm-0.1 0.1q0-0.1 0-0.1 0 0 0.1 0-0.1 0-0.1 0.1zm-0.4 0.2q0 0 0 0 0.1 0 0.1 0-0.1 0-0.1 0zm-8.1 0q-0.1 0-0.1 0-0.1 0-0.3 0c0-0.1 0.2-0.1 0.4 0q0 0 0 0zm-0.4-0.1q-0.1 0-0.1 0-0.1 0-0.1-0.1-0.1 0-0.1 0 0 0 0-0.1-0.1 0-0.1 0 0-0.1 0-0.1-0.1-0.1-0.2-0.2c0.1 0.1 0.4 0.6 0.3 0.4q0.1 0 0.2 0.1c-0.3 0 0.6 0.4 0.1 0.1q0 0 0-0.1 0 0 0 0zm-0.3-0.2q0 0.1 0 0.1 0-0.1 0-0.1 0 0 0 0zm0.2 0.2q0 0 0 0 0 0.1 0.1 0.1-0.1 0-0.1-0.1zm-11.1-21q-0.1 0-0.2 0 0.1 0 0.1 0 0 0 0.1 0zm-0.2 0q0 0 0 0 0 0 0 0zm1.2 0.5q-0.1-0.1 0 0c0.1 0.1 0.1 0 0 0zm0.4 0.5c0 0.2 0.2 0.5 0.1 0.7 0.1-0.1 0-0.3 0-0.5q0-0.6 0-1.2-0.8-0.1-1.5 0c0.2 0 0.5 0.1 0.7 0.3 0-0.1 0.2 0.1 0.3 0.2 0 0.1 0.3 0.4 0.4 0.5zm0.1-6.1q0-0.4 0-0.8c0 0.3-0.2 0.6-0.4 0.8q0 0.1 0 0.1c-0.3 0.3-0.7 0.4-1.1 0.5-0.5 0.1 0.1 0 0.3 0q0.6 0 1.2 0 0 0 0 0 0-0.3 0-0.6zm0-0.8q0.1-0.2 0-0.3 0 0.1 0 0.2 0 0 0 0.1zm9.1-19q0 0 0 0 0.1 0 0.1 0 0-0.1 0-0.1 0 0 0 0 0 0 0-0.1 0 0 0.1 0 0 0-0.1 0 0 0 0 0 0.1 0 0.1 0 0 0 0 0 0 0 0-0.1 0.1 0 0.1-0.1 0 0 0 0 0 0 0 0 0 0 0.1-0.1 0 0 0 0.1 0-0.1 0-0.1 0 0 0 0 0 0 0 0 0 0 0.1-0.1 0 0 0.1 0 0 0 0 0 0 0 0 0 0 0 0 0 0 0 0.1 0 0 0 0 0 0 0 0 0 0 0 0 0 0 0 0 0 0 0 0-0.1 0.2 0 0.3 0 0 0 0 0c0 0.1-0.1 0.1-0.3 0.1q-0.1 0-0.2 0.1 0 0-0.2 0.1 0 0-0.1 0.2-0.1 0.2-0.1 0.3 0 0-0.1 0.1 0-0.1 0-0.1 0 0 0 0 0 0 0 0 0 0 0-0.1zm0 0.1q0.1 0 0.1 0 0-0.1 0-0.2 0 0.1 0 0.1 0 0-0.1 0.1zm0.4-0.6q0.1 0 0.1 0 0.1-0.1 0.1-0.1 0 0 0 0 0 0-0.1 0 0 0-0.1 0.1zm8.7-0.2q0 0 0 0 0 0 0 0 0 0 0 0zm0.1 0c0.2 0.1 0.3 0.1 0.1 0.1q-0.1-0.1-0.1-0.1zm0 0q0 0 0 0 0 0 0 0 0 0 0 0zm0 0q0 0 0 0 0 0 0 0zm0.3 0.3q0 0 0 0 0.1 0.1 0.1 0.2c0-0.2 0.1-0.1 0.1 0.1q0 0-0.1 0 0.1 0 0.1 0.1 0 0 0 0 0-0.1-0.1-0.2 0 0-0.1-0.2zm0.1 0.2q0 0 0 0 0 0 0 0.1 0-0.1 0-0.1zm0.2 0.2q0 0.1 0 0.1 0 0 0-0.1 0 0 0 0zm0 45.3q-0.1 0.4 0 0 0 0 0 0zm-0.1 0.1q0 0 0 0 0 0.1-0.1 0.2c0 0 0-0.1 0.1-0.2zm-0.4 0.5q-0.3 0.3 0 0 0 0 0 0zm-9.1-0.3q0-0.1-0.1-0.2 0 0.1 0 0.1 0-0.1 0-0.1 0 0 0 0 0 0 0-0.1 0 0 0 0 0 0 0 0 0 0-0.1-0.1 0.1 0.1 0.1 0.2c0.1 0.2 0.1 0.2 0.1 0.2zm-0.1-0.2q0 0 0-0.1 0 0 0 0 0 0.1 0 0.1 0 0 0 0 0 0 0 0zm-9.6-25.5q0 0-0.1 0 0 0 0.1 0 0 0 0 0zm9.7-20.1q0 0 0 0 0 0 0 0 0 0 0 0zm0.1-0.2q0 0 0 0 0 0 0.1 0-0.1 0-0.1 0zm0.3-0.3q0 0 0 0 0 0 0 0 0 0 0 0zm0.1 0.1q-0.1 0-0.1 0 0 0 0-0.1 0 0.1 0.1 0.1zm0 0q0 0 0 0 0 0 0 0 0 0 0 0zm113.6 28.2c-0.5 2-2.3 3.4-4.4 3.4q-2.3 0.1-4.6 0 0 6 0 11.9 0 1 0 2c0 1.8-0.6 3.3-1.7 4.7-1.3 1.7-3.4 2.5-5.4 2.5q-1.4 0-2.8 0-1.9 0-3.8 0c-1 0-2.1 0.1-3.1-0.2-3.3-0.9-5.2-3.9-5.2-7.1q0-4.4 0-8.8 0-7.7 0-15.3 0-7.2 0-14.3 0-2.3 0-4.6c0-0.7 0-1.4 0.1-2.1 0.3-2.9 2.1-5.3 4.9-6.2 1.1-0.3 2.2-0.3 3.3-0.3q3.2 0 6.5 0c4.1 0 7.2 3.2 7.2 7.2q0 2.6 0 5.2 0 4.4 0 8.7 2.3 0 4.7 0 0.4 0 0.8 0.1c2.1 0.5 3.5 2.2 3.6 4.4q0 0.9 0 1.8 0 2.6 0 5.1c0 0.6 0 1.3-0.1 1.9zm-15.4 18.2q0 0 0 0 0 0 0 0zm-9.5-45.8q0 0 0 0 0 0.1 0 0zm0.2-0.3q0 0 0 0 0 0 0 0 0 0 0 0zm0 0q0 0 0 0 0 0 0 0zm0.1-0.1q0 0 0 0 0 0 0 0 0 0 0 0zm0 0q0 0 0 0 0 0 0 0zm12.5 20.8c-1.6 0-3-1.4-3-3q0-0.5 0-1 0-6.7 0-13.4 0-1.2 0-2.3 0-0.2 0-0.4 0-0.1 0-0.1c-0.1-0.1-0.1-0.3-0.1-0.3q0-0.1 0-0.1-0.1 0-0.1-0.1-0.1-0.1-0.3-0.2 0-0.1-0.1-0.1-0.1 0-0.2-0.1-0.1 0-0.2 0-0.1 0-0.2 0-1.4 0-2.8 0-1.8 0-3.6 0-0.5 0-1.1 0-0.1 0-0.2 0 0 0 0 0 0.1 0 0.2 0-0.1 0-0.2 0c-0.2 0-0.3 0.1-0.3 0.1q0 0 0 0-0.1 0.1-0.2 0.1-0.1 0.1-0.2 0.2 0 0.1-0.1 0.1 0.1 0 0.1 0-0.1 0-0.1 0 0 0 0 0 0 0.1 0 0.1 0 0-0.1 0.1 0 0 0 0 0.1-0.1 0.1-0.1 0 0.1 0 0.1 0 0.1-0.1 0.1 0 0.1 0 0.1 0 0.3 0 0.6 0 4.5 0 9 0 7.4 0 14.7 0 7 0 14c0 2.2 0 4.4 0 6.6q0 0 0 0.1 0.1 0.1 0.1 0.1 0 0.1 0 0.2 0 0 0.1 0.1-0.1 0-0.1-0.1 0 0 0 0.1 0.1 0 0.1 0 0 0 0 0.1c0.1 0.1 0.2 0.1 0.1 0.1q0.1 0 0.1 0 0 0.1 0.1 0.1 0 0 0.1 0-0.1 0-0.1 0 0.1 0 0.2 0.1 0 0 0 0 0 0 0.1 0 0 0 0 0 0 0-0.1-0.1 0.1 0.1 0.2 0.1 0.1 0 0.2 0 0.5 0 1 0 3.3 0 6.5 0 0.1 0 0.2 0 0.1 0 0.2 0 0 0 0.1 0 0 0 0.1-0.1 0.1 0 0.1 0 0.2-0.1 0.3-0.2 0-0.1 0.1-0.2 0-0.1 0-0.2 0 0.1 0 0.1 0 0 0 0 0.1-0.1 0.1-0.1 0-0.1 0-0.2 0 0 0-0.1 0 0.1 0 0.1 0 0 0 0 0 0 0 0 0-0.2 0-0.4 0-2.8 0-5.6 0-5.6 0-11.2c0-1.6 1.4-3 3-3q1.8 0 3.7 0 1.2 0 2.4 0 0-2 0-4.1 0-0.2 0-0.4-3.1 0-6.1 0zm-3 24.7q-0.1 0.1-0.1 0.2 0 0 0.1-0.2 0 0 0 0zm-9.6 0.5q0 0 0 0 0.1 0.1 0.1 0.2 0-0.1-0.1-0.2zm-0.1-45.8q0 0 0 0 0 0 0 0.1 0 0 0-0.1zm0.8-0.5q0 0 0 0-0.3 0.1-0.3 0.1 0.1 0 0.3-0.1zm-11.2 6.2q0 7.8 0 15.7 0 8.1 0 16.1 0 6.3 0 12.6c0 1.9 0 3.8 0 5.7-0.1 1.9-0.7 3.6-2 5-1.4 1.4-3.4 2.1-5.3 2.1q-3.4 0-6.8 0c-1.5 0-3-0.2-4.3-0.9-2.2-1.2-3.6-3.6-3.6-6.1q0-1.6 0-3.1 0-7.5 0-15 0-3.3 0-6.6-7.5 0-15 0 0 8.7 0 17.4 0 3.4 0 6.9c0 2-0.6 3.8-2 5.3-1.3 1.3-3.1 2.1-5 2.1q-0.6 0-1.1 0-2.6 0-5.2 0c-1.8 0-3.7 0-5.3-1.1-2.1-1.3-3.3-3.6-3.4-6q0-0.5 0-1 0-6.7 0-13.4 0-10.6 0-21.2 0-10.1 0-20.1c0-3.4 0-6.8 0-10.1 0.1-2.4 1.2-4.6 3.1-6 1.7-1.1 3.6-1.2 5.5-1.2q2.6 0 5.1 0 0.6 0 1.3 0c1.8 0.1 3.4 0.7 4.8 1.9 1.5 1.4 2.2 3.5 2.2 5.5q0 1.2 0 2.4 0 4.8 0 9.7 0 6.1 0 12.2 7.5 0 15 0 0-1.6 0-3.3 0-10 0-20c0-0.5 0-1 0-1.5 0.2-3.8 3.2-6.8 7-6.9 2.7 0 5.3 0 7.9 0 2.6 0.1 5.2 1.5 6.3 3.9 1 2.2 0.8 4.9 0.8 7.3q0 5.8 0 11.7zm-6.7 51.1q0 0 0 0 0 0 0 0zm0 0q0 0 0 0 0 0 0 0zm0 0q0 0 0 0 0 0 0 0 0 0 0 0zm-45.6 0q0 0 0 0 0 0 0 0zm0-0.1q0 0-0.1 0 0.1 0 0.1 0.1 0-0.1 0-0.1zm-0.6-67.2q0 0 0 0 0 0 0 0zm0.1 0q0 0 0-0.1 0 0.1-0.1 0.1 0.1 0 0.1 0zm0.3-0.4q0 0 0 0 0 0 0 0zm0.1 0q0 0 0 0-0.1 0-0.1 0 0 0 0.1 0zm9.2 0.2q0 0 0 0 0 0 0 0zm0 0.1q0 0 0 0 0-0.1 0-0.1 0 0 0 0.1zm36.3-0.5q0 0 0 0 0 0 0 0.1 0 0 0 0 0 0 0-0.1zm0.7 67q0-0.1 0-0.2 0-0.3 0-0.7 0-4 0-7.9 0-6.8 0-13.6 0-8 0-15.9 0-7.4 0-14.8 0-5.1 0-10.2 0-1.2 0-2.4 0-0.2 0-0.3 0-0.1 0-0.2 0-0.1-0.1-0.2 0-0.2-0.1-0.2 0-0.1-0.1-0.1 0-0.1-0.1-0.1 0.1 0 0.1 0-0.1 0-0.1 0 0-0.1-0.1-0.1 0 0-0.1 0 0 0 0 0 0 0 0 0 0 0 0 0-0.1 0-0.1 0-0.1 0-0.2 0-2.1 0-4.3 0-1.3 0-2.7 0-0.4 0-0.8 0 0 0-0.1 0 0 0-0.1 0-0.1 0-0.1 0-0.1 0-0.1 0-0.1 0.1-0.2 0.1-0.1 0.1-0.1 0.2 0-0.1 0-0.1 0 0 0 0 0 0-0.1 0.1 0 0-0.1 0.1 0 0 0 0 0 0 0 0.1 0 0 0 0 0 0 0 0 0 0 0 0 0 0.1-0.1 0.2 0 0.1 0 0.2 0 0 0 0 0 0 0 0 0 0.1 0 0.2 0 1.2 0 2.4 0 4.7 0 9.5 0 7.8 0 15.6c0 1.6-1.4 3-3 3q-1.4 0-2.7 0-9.2 0-18.5 0c-1.6 0-3-1.4-3-3q0-0.6 0-1.2 0-9.3 0-18.6 0-3.6 0-7.3 0-0.3 0-0.5c0 0 0 0 0-0.2q0 0 0-0.1 0 0.1 0-0.1 0 0 0-0.1 0 0 0 0.1-0.1 0-0.1-0.1 0 0 0 0 0-0.1 0-0.1 0 0 0 0 0 0 0 0-0.1 0-0.1-0.1 0 0-0.1-0.1 0.1 0.1-0.2-0.1 0.1 0 0.1 0 0 0 0 0-0.1 0-0.2-0.2c0.1 0.1 0.1 0.1 0.1 0.2q0 0 0 0c0.1 0 0.1 0-0.1-0.1q-0.1 0-0.3 0 0.1 0 0.2 0 0 0 0 0 0 0 0 0 0 0 0.1 0-0.1 0-0.2-0.1 0.1 0.1 0.1 0.1 0 0 0 0 0 0 0 0-0.2 0-0.3-0.1 0.1 0 0.1 0.1 0 0 0 0-0.7 0-1.3 0-2.5 0-5 0-0.7 0-1.5 0 0 0-0.1 0c0-0.1 0-0.1-0.2 0q0 0 0 0 0 0 0 0 0 0 0 0 0.2 0 0.2 0 0 0 0 0 0 0-0.2 0-0.1 0-0.3 0.1 0.1 0 0.1-0.1 0.1 0 0.1 0 0 0 0 0 0 0 0 0c0 0-0.1 0-0.1 0q0.1 0 0.1 0 0 0-0.1 0 0 0 0 0-0.1 0.1-0.1 0.1 0 0 0 0 0 0 0 0 0 0-0.1 0.1-0.1 0-0.1 0.1c0.1-0.1 0.1-0.1-0.1 0.1q0-0.1 0.1-0.1-0.1 0.1-0.1 0.1 0 0-0.1 0 0.1 0 0.1 0 0 0 0 0-0.1 0.1-0.1 0.1 0 0 0 0c0 0 0 0 0 0.3q0-0.1 0-0.2 0 0 0 0 0 0.2-0.1 0.4 0-0.1 0.1-0.2 0 0 0 0.1 0 0 0 0 0 0.1 0 0.2 0 0.6 0 1.2 0 6.7 0 13.5 0 10.3 0 20.7 0 9.8 0 19.7 0 5.2 0 10.4 0 0.1 0 0.3 0 0 0 0 0 0 0 0.1 0 0 0 0.1 0 0.1 0.1 0.2 0 0 0 0 0 0.1 0.1 0.2 0 0 0.1 0c-0.1 0-0.1 0 0.1 0.1q-0.1 0-0.1 0 0.1 0 0.1 0.1 0 0 0 0 0 0 0-0.1 0 0.1 0.1 0.1 0 0 0 0 0.1 0 0.1 0.1 0.1 0 0.2 0 0 0 0.1 0 0 0 0 0 0.7 0 1.4 0 2.6 0 5.1 0 0.7 0 1.3 0 0.1 0 0.3 0 0 0 0 0 0.1-0.1 0.2-0.1 0 0 0 0c0 0 0.1-0.1 0.2-0.1q0-0.1 0.1-0.2 0 0 0.1-0.1 0 0 0-0.1 0 0 0.1-0.1 0 0 0-0.1 0-0.1 0-0.2 0-0.3 0-0.5 0-1.4 0-2.8 0-4.8 0-9.6 0-7.4 0-14.8c0-1.6 1.4-3 3-3q1.4 0 2.7 0 9.2 0 18.5 0c1.6 0 3 1.4 3 3q0 0.4 0 0.7 0 6.2 0 12.4 0 6.6 0 13.3 0 0.6 0 1.2 0 0.1 0 0.2 0 0 0 0c0.1 0.1 0.2 0.4 0.2 0.4q0 0.1 0 0.1 0 0 0 0.1 0.1 0 0.1 0 0 0 0.1 0.1-0.1 0-0.1-0.1 0.1 0.1 0.1 0.1 0 0 0.1 0 0 0.1 0.1 0.1 0 0-0.1 0 0 0-0.1 0 0 0 0.1 0 0.1 0.1 0.1 0.1 0 0 0 0 0 0 0 0 0 0 0 0 0 0 0 0 0 0 0.1 0 0 0 0-0.1-0.1 0-0.1 0.1 0 0 0-0.1 0 0 0.1 0-0.1 0-0.1 0 0.1 0 0.1 0 0 0 0 0 0 0 0 0 0 0.1 0 0.1 0 0 0.1 0 0 0 0.1 0c0.1 0 0.1 0 0.1 0q0.4 0 0.8 0 1.8 0 3.6 0 1.5 0 3.1 0 0.1 0 0.2 0c0 0 0 0 0.2 0q0 0 0.1 0 0 0 0.1 0 0 0 0-0.1 0 0 0 0 0 0 0 0 0.1 0 0.2-0.1-0.1 0.1-0.1 0.1 0 0 0.1 0 0 0 0 0 0.1-0.1 0.1-0.1 0.1-0.1 0.1-0.1 0 0 0 0 0 0 0 0 0 0 0 0 0.1-0.1 0.1-0.1 0 0 0-0.1c0-0.1 0.1-0.3 0.1-0.4q0 0 0 0 0 0 0 0zm-36.9-66.4q0 0 0 0 0 0 0 0zm-0.3-0.3q0 0-0.1-0.1 0.1 0.1 0.1 0.1 0 0 0 0zm-0.5-0.3q0 0 0 0 0 0 0 0zm-0.2 0q0 0 0 0 0 0 0 0zm-7.8 0.1q0 0 0 0 0 0 0 0zm-0.7 0.3q0 0 0 0 0 0 0 0zm-0.2 66.6q0 0 0 0 0 0 0 0zm0.3 0.7q0 0 0 0 0 0 0 0zm37 0q0 0 0 0 0 0 0 0zm0.2 0.2q0 0 0 0 0 0 0 0 0 0 0 0zm0-0.1q0 0 0 0 0 0 0 0zm-28.4-67.7q0 0 0.1 0-0.1 0-0.1 0 0 0 0 0zm0.1 0q0 0 0 0.1 0-0.1 0-0.1zm0.4 0.4q0 0.1 0 0.1 0 0.1 0 0.2 0-0.1 0.1-0.1 0 0 0 0 0 0.1 0 0.1 0 0 0 0 0 0 0 0 0 0.1 0 0.2 0 0 0 0.1-0.1-0.1-0.1-0.3 0-0.1 0-0.3zm27.8 67.2q0 0 0 0 0 0 0 0 0 0 0 0zm0.5 0.2q0 0 0 0-0.1 0-0.1 0 0 0-0.1 0-0.1 0-0.1-0.1 0.3 0 0.3 0.1zm8.1-0.1q-0.1 0.1-0.1 0.1-0.1 0-0.2 0 0 0 0 0 0 0-0.1 0 0.1-0.1 0.4-0.1zm0.3-0.1q-0.1 0-0.1 0 0 0 0.2-0.1-0.1 0-0.1 0.1zm-8.8 0.2q0 0 0 0 0 0 0 0zm0 0q0 0 0 0 0 0 0 0zm-0.4-67.5q0 0 0.1 0-0.1 0.1-0.2 0.2 0.1-0.1 0.1-0.2zm8.9-0.3q0.1 0.1 0.2 0.1 0 0-0.2-0.1 0 0 0 0zm-8.5 67.8q0 0 0 0 0 0 0 0z"/>
</svg>