<svg version="1.2" xmlns="http://www.w3.org/2000/svg" viewBox="0 0 199 265" width="53" height="55">
	<title>hobby</title>
	<style>
		.s0 { fill: #ff7251 } 
	</style>
	<path id="Icon" fill-rule="evenodd" class="s0" d="m122.5 94.4c-2.5 1.7-5.8 2.1-8.8 1.5-2.6-0.5-5.2-2.1-6.4-4.5-1.2-2.3-1-5.4 1.4-6.9 1.6-1.1 3.8-1.2 5.9-1.2q0-3 0-5.9-4.3 0.8-8.7 1.7 0 2.9 0 5.8 0 3.7 0 7.4c0 4.3-3.7 7.1-7.7 7.8-4.7 0.7-11-1.4-11.7-6.8-0.3-2.3 0.7-4.5 2.5-6 1.6-1.3 3.5-2.1 5.5-2.4q0-3.8 0-7.7 0-1.4 0-2.8c0-2.6 1.9-5 4.5-5.6 2.2-0.4 4.4-0.8 6.6-1.3q5.1-1 10.2-2 1.5-0.3 2.9-0.6 0.7-0.1 1.3-0.2c1.2-0.1 3.2 0.4 4.1 1.5 1.2 1 1.9 2.6 1.9 4.2q0 0.4 0 0.8 0 2.3 0 4.6 0 5.1 0 10.3 0 1.2 0 2.4c0 2.5-1.5 4.6-3.5 5.9zm0.1-5.5c0-0.1 0-0.2 0 0zm0-1.3q0-1.8 0-3.6 0-4.8 0-9.7 0-1.6 0-3.2c0-1.2 0-1.8-0.8-2.5-0.7-0.4-1.3-0.6-1.9-0.5q-0.5 0.1-0.9 0.2-2 0.4-4.1 0.8-4.9 1-9.9 2-1.9 0.4-3.8 0.7c-0.6 0.2-1.2 0.3-1.8 0.4-0.1 0.1-0.1 0.1-0.1 0.1q-0.1 0-0.3 0.1-0.1 0.1-0.2 0.2c0 0-0.2 0.2-0.2 0.2q-0.1 0.1-0.2 0.2c0.2-0.2-0.2 0.2-0.2 0.2q0 0.1-0.1 0.3-0.1 0-0.1 0.1 0 0 0 0.1 0 0.2-0.1 0.3c0 0.1 0 0.1 0 0.1q0 0.2 0 0.3 0 0 0 0 0 0.1 0 0.1 0 0.2 0 0.4 0 2 0 4 0 3.8 0 7.6c0 0.9-0.8 1.7-1.7 1.7-2.2 0-4.2 0.7-5.6 2.3q0 0 0 0 0 0 0 0-0.2 0.2-0.3 0.4-0.1 0.1-0.1 0.3-0.1 0-0.1 0.1c0 0.1-0.1 0.3-0.1 0.3q0 0.1-0.1 0.3 0 0.1 0 0.2c0 0.1 0 0.1 0 0.2q-0.1 0.2 0 0.4c0 0 0 0.1 0 0.2 0 0.1 0 0.2 0 0.2q0 0.1 0.1 0.3 0 0.1 0.1 0.3 0 0 0 0.1 0.2 0.3 0.4 0.6 0 0.1 0.1 0.1 0 0 0 0 0.1 0.2 0.2 0.3 0.2 0.2 0.5 0.4 0.1 0.1 0.2 0.2c0 0 0.1 0.1 0.1 0.1q0.3 0.2 0.6 0.3c0.8 0.5 1.6 0.8 2.7 1q0.1 0 0.2 0 0 0 0.1 0 0.2 0 0.4 0 0.4 0 0.8 0c0.6 0 0.9 0 1.4-0.1 1.1-0.2 1.8-0.5 2.6-1q0.2-0.1 0.4-0.3 0.1 0 0.1 0 0.3-0.2 0.5-0.5 0.2-0.2 0.4-0.4 0 0 0 0 0.1-0.1 0.1-0.1 0.1-0.1 0.1-0.2 0.1-0.2 0.2-0.4 0.1 0 0.1-0.1 0.1-0.2 0.1-0.5c0.1-0.1 0.1-0.4 0.1-0.4q0-0.1 0-0.3 0-0.8 0-1.6 0-6.6 0-13.2c0-0.7 0.6-1.5 1.3-1.6q0.7-0.2 1.5-0.3 5.3-1.1 10.5-2.1c1.1-0.3 2.2 0.4 2.2 1.6q0 4.8 0 9.7c0 0.9-0.8 1.7-1.7 1.7q-1.1 0-2.3 0-0.5 0-1 0.1-0.3 0-0.5 0-0.1 0-0.1 0-0.8 0.1-1.6 0.4-0.1 0-0.1 0.1-0.1 0-0.2 0.1-0.1 0-0.1 0-0.1 0.1-0.2 0.2 0 0 0 0 0 0 0 0-0.1 0.1-0.2 0.3 0 0 0 0.1 0 0.1-0.1 0.2c0.1-0.4 0.1 0 0.1 0.1q0 0.3 0 0.5 0 0 0 0.1 0 0 0 0 0 0.2 0.1 0.4 0 0.2 0.1 0.4 0 0 0 0 0.2 0.4 0.5 0.8c0 0 0.1 0.1 0.1 0.1q0.1 0.2 0.3 0.3 0.2 0.2 0.4 0.4 0 0 0.1 0 0.4 0.3 0.8 0.6 0.1 0.1 0.3 0.1c0 0 0.2 0.1 0.3 0.2q0.7 0.3 1.5 0.4c1 0.3 2.4 0.3 3.4 0.1 1.3-0.3 2-0.6 3-1.3q0.1 0 0.1 0 0 0 0.1-0.1 0.1-0.1 0.3-0.3 0.2-0.2 0.5-0.5 0 0 0 0 0.1-0.1 0.1-0.1 0.1-0.1 0.1-0.3c0.1 0 0.3-0.4 0.3-0.4q0.1-0.4 0.2-0.8 0 0 0 0 0-0.2 0-0.3 0-0.1 0-0.2 0-0.4 0-0.8zm-40-2.9q-3.3 3.3-6.5 6.7-1.3 1.3-2.7 2.7c-0.3 0.3-0.6 0.7-0.9 1q0 0 0 0c-1.5 1.3-3.7 1.5-5.2 0.1q-0.2-0.2-0.5-0.5-1.3-1.4-2.7-2.8-3.4-3.5-6.9-7.1c-1.9-1.9-3.8-3.8-4.7-6.5-1.6-5.2 1.1-11.1 6.3-13 2.5-1 5.4-0.7 7.8 0.4 1.3 0.6 2.3 1.4 3.2 2.3q0.1-0.1 0.2-0.2c1-1.1 2.3-1.9 3.7-2.4 2.7-1.1 5.7-0.9 8.3 0.3 4.6 2.3 6.7 8 5.1 12.8-0.9 2.5-2.7 4.3-4.5 6.2zm-12.8 8.1q0 0 0 0 0 0-0.1 0 0 0 0 0 0 0 0 0 0 0 0 0 0.1 0 0.1 0zm14.2-19.3q-0.1-0.7-0.4-1.4c0 0-0.1-0.2-0.1-0.2q-0.1-0.2-0.2-0.4-0.2-0.3-0.4-0.6-0.1-0.2-0.2-0.3c0 0-0.1-0.1-0.1-0.1q-0.3-0.3-0.6-0.6c-0.4-0.4-0.6-0.6-1.1-0.9q-0.4-0.2-0.8-0.4c0.2 0.1-0.3-0.1-0.4-0.2q-0.4-0.1-0.8-0.2-0.3 0-0.5-0.1 0 0 0 0-0.1 0-0.1 0-0.8-0.1-1.5 0-0.1 0-0.2 0 0 0 0 0-0.3 0.1-0.5 0.1-0.3 0.1-0.7 0.2-0.3 0.1-0.7 0.2-0.1 0.1-0.1 0.1 0 0-0.1 0-0.1 0.1-0.3 0.2c-0.9 0.4-1.4 0.8-2 1.5q-0.6 0.6-1.2 1.2c-0.6 0.7-1.7 0.7-2.4 0q-0.6-0.6-1.2-1.3c-0.5-0.5-0.8-0.7-1.3-1-0.5-0.4-1-0.6-1.4-0.8q-0.5-0.1-1-0.2-0.2-0.1-0.5-0.1c0-0.1-0.1-0.1-0.2-0.1q-0.9-0.1-1.7 0-0.1 0-0.1 0-0.1 0-0.2 0.1-0.2 0-0.4 0-0.4 0.2-0.8 0.3-0.2 0-0.2 0 0 0-0.1 0.1-0.2 0.1-0.4 0.2-0.4 0.2-0.8 0.5c-0.7 0.5-1.4 1.3-1.9 2.1q-0.2 0.4-0.4 0.8 0 0 0 0.1 0 0 0 0-0.1 0.2-0.2 0.4-0.2 0.7-0.3 1.4c0 0.1 0 0.3 0 0.3q-0.1 0.2-0.1 0.3 0 0.4 0 0.9c0.1 0.6 0.1 0.6 0.2 1.2 0.3 1.1 0.5 1.6 1.2 2.6q0.1 0.1 0.1 0.1 0 0.1 0.1 0.1 0.1 0.2 0.2 0.4 0.1 0.1 0.2 0.2 0.1 0 0.1 0.1 0.3 0.3 0.7 0.6 1.1 1.2 2.3 2.5 3.2 3.2 6.4 6.5 1.1 1.2 2.2 2.3 0.2 0.2 0.5 0.5 0 0 0 0c0 0 0.1 0.1 0.1 0.1-0.1-0.1 0.1 0 0 0q0.1 0 0.1 0 0.2 0 0.1 0 0 0 0 0 0.1 0 0.1 0c0 0 0 0 0.1-0.1q0 0 0 0 0 0 0.1-0.1 2-2.1 4.1-4.3 3-3.1 6-6.2 0.9-0.9 1.7-1.8 0.3-0.2 0.6-0.5c0 0 0.3-0.4 0.1-0.2q0.1-0.2 0.2-0.3 0.2-0.3 0.4-0.7c0.3-0.6 0.3-0.5 0.5-1.1q0.2-0.4 0.2-0.8 0.1-0.2 0.1-0.4 0-0.1 0-0.1 0.1-0.8 0.1-1.5c0-0.7 0-0.6-0.2-1.2zm-32 45.1c0-1.2 0-2.5 0.3-3.7 0.7-2.9 3.2-5.2 6.1-5.6 1.3-0.2 2.5-0.2 3.8-0.2 0.8-1.3 1.7-2.6 3.1-3.3 1.4-0.7 2.9-0.7 4.4-0.7q2.4 0 4.7 0 0.6 0 1.3 0c1.3 0.1 2.6 0.5 3.6 1.3 0.9 0.7 1.5 1.8 2.2 2.7q0.5 0 1 0c0.8 0 1.5 0 2.2 0.1 1.7 0.2 3.1 0.9 4.3 1.9 1.8 1.5 2.6 3.7 2.6 6q0 4.7 0 9.5 0 2 0 4c0 2.2-0.7 4.2-2.2 5.7-1.5 1.6-3.6 2.4-5.7 2.4q-1.4 0-2.7 0-10 0-20 0c-0.9 0-1.8 0-2.7-0.2-2.9-0.5-5.4-2.9-6.1-5.8-0.2-1.1-0.2-2.4-0.2-3.6q0-2.7 0-5.3 0-2.6 0-5.2zm3.4-1.4q0 1 0 1.9 0 5.7 0 11.4 0 0.2 0 0.4 0 0.3 0 0.6 0 0 0.1 0.1c0 0 0 0.1 0 0.2q0.1 0.2 0.1 0.4 0.1 0.2 0.1 0.4 0 0 0 0 0 0 0.1 0 0.1 0.2 0.2 0.5 0.1 0.2 0.3 0.4 0 0.1 0 0.1 0 0 0.1 0.1 0.2 0.2 0.5 0.5c0 0 0.1 0.1 0.2 0.1q0.4 0.3 0.8 0.6c0 0 0.1 0 0.2 0.1 0.1 0 0.2 0 0.2 0q0.2 0.1 0.5 0.2c0 0 0.3 0 0.4 0q0.2 0.1 0.4 0.1 0.1 0 0.3 0 0.5 0 1.1 0 5.6 0 11.3 0 5.3 0 10.7 0 0.4 0 0.9 0c0.6 0 0.5 0 1.1-0.2 0.5-0.1 1.1-0.4 1.6-0.7 0.1-0.1 0.5-0.5 0.7-0.8 0 0 0.1-0.2 0.2-0.2q0.1-0.2 0.2-0.4 0.1-0.2 0.2-0.4 0.1-0.2 0.1-0.4 0.1-0.3 0.2-0.6 0 0 0 0 0-0.2 0-0.3 0-0.6 0-1.2 0-5.8 0-11.7 0-0.7 0-1.4 0-0.1 0-0.1 0-0.2 0-0.4 0-0.1 0-0.2 0 0 0 0 0-0.1 0-0.1-0.1-0.3-0.2-0.6c0-0.1-0.1-0.5-0.1-0.4 0 0.1-0.1-0.2-0.2-0.3q-0.1-0.3-0.2-0.5-0.1-0.1-0.2-0.2 0 0 0 0-0.2-0.2-0.4-0.4-0.2-0.2-0.4-0.4c0.2 0.2-0.2-0.1-0.2-0.1q-0.3-0.2-0.5-0.3-0.1-0.1-0.3-0.1 0 0 0-0.1-0.5-0.1-1-0.2c0 0-0.3-0.1-0.4-0.1q-0.1 0-0.2 0-0.2 0-0.4 0-0.7 0-1.5 0-0.6 0-1.3 0c-0.8 0-1.3-0.3-1.7-0.9-0.5-0.7-0.9-1.4-1.4-2.1-0.5-0.7-1.2-1-2.1-1q-1.1 0-2.3 0c-1.7 0-3.5 0-5.2 0-0.9 0-1.6 0.4-2.1 1.2q-0.6 1-1.3 2-0.1 0-0.1 0.1c-0.3 0.4-0.7 0.7-1.4 0.7q-1.2 0-2.4 0-0.5 0-0.9 0c-0.6 0-1.1 0.1-1.7 0.3 0 0.1-0.1 0.1-0.2 0.1q-0.1 0.1-0.2 0.1-0.2 0.2-0.5 0.3 0 0.1-0.1 0.2 0 0 0 0-0.3 0.2-0.5 0.4-0.1 0.1-0.2 0.2 0 0-0.1 0.1-0.1 0.2-0.2 0.3-0.1 0.3-0.2 0.5-0.1 0.1-0.2 0.2 0 0 0 0-0.1 0.3-0.1 0.6c-0.1 0.1-0.2 0.5-0.1 0.4 0-0.1-0.1 0.3-0.1 0.4q0 0.1 0 0.3 0 0.1 0 0.3zm18.9-0.6c3.1 1.1 5.2 4 5.2 7.3 0 3.5-2.5 6.8-6 7.5-3.2 0.7-6.5-0.7-8.3-3.5-1.7-2.8-1.4-6.4 0.7-8.9 1.9-2.5 5.5-3.5 8.4-2.4zm-6.5 5.6c-0.1 0.2 0 0.1 0 0zm5.7-2.3c-0.2-0.1 0 0 0 0zm-6 4.4q0 0.1 0 0.2 0 0 0 0.1 0.1 0.2 0.1 0.4 0.1 0.2 0.1 0.4c0 0 0.1 0.1 0.1 0.2q0.1 0.3 0.3 0.6 0.1 0.1 0.2 0.3c0.2 0.3 0.1 0.1 0.1 0q0.3 0.4 0.7 0.7 0 0.1 0 0.1 0.2 0.1 0.4 0.3 0.3 0.2 0.6 0.3 0.1 0 0.1 0 0 0 0.1 0.1 0.1 0 0.3 0.1 0.2 0 0.5 0.1 0.1 0 0.1 0 0 0 0.1 0 0.4 0 0.8 0 0.2 0 0.3 0c0.1 0 0.1 0 0.2 0q0.4-0.1 0.8-0.2 0.1-0.1 0.1-0.1 0 0 0.1 0 0.2-0.1 0.3-0.2 0.3-0.2 0.6-0.4c0 0 0.2-0.2 0.2-0.2q0.1-0.1 0.2-0.2 0.2-0.1 0.3-0.3 0 0 0.1 0 0-0.1 0-0.1 0.2-0.4 0.5-0.8c0 0 0-0.1 0-0.2q0.1-0.1 0.1-0.2 0.2-0.4 0.2-0.8 0 0 0-0.1 0-0.2 0.1-0.5 0-0.3-0.1-0.7 0 0 0 0-0.1-0.5-0.3-0.9c0-0.1-0.1-0.3-0.1-0.3q-0.1-0.1-0.1-0.3-0.2-0.2-0.3-0.4 0-0.1-0.1-0.1 0 0 0-0.1-0.3-0.3-0.6-0.5-0.1-0.1-0.1-0.1-0.1-0.1-0.1-0.1-0.2-0.1-0.4-0.2-0.2-0.2-0.4-0.3-0.1 0-0.1 0-0.4-0.2-0.9-0.3-0.1 0-0.1 0-0.1 0-0.2 0-0.2 0-0.4 0-0.3 0-0.7 0c-0.1 0-0.3 0.1-0.3 0.1q-0.2 0-0.3 0-0.2 0.1-0.4 0.2-0.1 0-0.1 0 0 0 0 0-0.4 0.2-0.7 0.4c-0.1 0-0.5 0.4-0.2 0.2q-0.2 0.1-0.3 0.2-0.3 0.2-0.5 0.5 0 0.1-0.1 0.1-0.1 0.2-0.2 0.4-0.1 0.2-0.3 0.5 0 0 0 0-0.1 0.4-0.2 0.8 0 0.1-0.1 0.2c0 0 0 0.3 0 0.4q0 0.3 0 0.7zm33.9-7.7q3.4-2.9 6.9-5.9 3.2-2.8 6.4-5.6 0.5-0.5 1.1-1c1.2-1.1 3-1.3 4.5-0.4 1.4 0.9 2.1 2.7 1.5 4.4q0-0.1 0-0.1-0.1 0.2-0.1 0.3-0.1 0.1-0.1 0.2-0.3 0.7-0.6 1.4-1.6 3.6-3.1 7.3 1.9 0 3.8 0c1.2 0 2.4 0.2 3.2 1.1 1.5 1.4 1.5 3.9-0.1 5.3-2.1 2.1-4.4 3.9-6.7 5.9q-4.3 3.8-8.6 7.6-0.4 0.3-0.7 0.6c-1.5 1.2-3.8 1.3-5.2-0.2-1.2-1.2-1.2-2.8-0.6-4.3q0.4-0.8 0.7-1.7 1.5-3.4 3-6.9-0.8 0-1.5 0c-1.4 0-3.3 0.3-4.7-0.4-2.3-1.2-2.6-4.4-0.7-6.1q0.8-0.7 1.6-1.5zm0.6 4.6q0 0 0 0 0 0 0 0zm0-0.1c-0.1-0.1 0 0 0 0.1 0.1 0 0.2 0 0.1 0 0.2 0 0.1 0 0.1 0q0.2 0 0.3 0 3.4 0 6.7 0c0.6 0 1.2 0.3 1.5 0.8 0.3 0.6 0.2 1.2 0 1.8q-0.1 0.1-0.1 0.2-2.1 4.8-4.1 9.7-0.3 0.6-0.6 1.3c-0.1 0.1 0.1-0.2 0.1-0.2q0 0-0.1 0.1c0 0 0.1 0.1 0.1 0.2q0 0 0 0c0 0.1 0.1 0.2 0.1 0.1q0.1 0.1 0.1 0.1 0 0 0.1 0c0.1-0.1 0.2-0.1 0.1 0 0.6-0.4 1.1-1 1.7-1.5q4.3-3.8 8.7-7.6c1.9-1.7 3.8-3.3 5.7-5 0.1-0.1 0.1-0.1 0.1-0.2 0.1-0.1 0-0.1 0-0.2q0 0 0 0 0 0 0 0 0-0.1 0-0.1 0 0-0.1-0.1c0 0-0.1 0-0.1 0 0.2 0 0 0-0.1 0q-0.1 0-0.1 0-1.2 0-2.3 0-2.3 0-4.6 0c-1.4 0-1.9-1.4-1.4-2.6q0.3-0.7 0.6-1.4 2-4.7 4-9.4 0 0 0 0 0.1-0.2 0.1-0.4 0 0 0 0c0-0.2 0.1 0.1 0-0.2 0 0.2-0.2-0.1-0.1 0q-0.1-0.1-0.1-0.1-0.1 0-0.1 0c-0.1 0-0.2 0-0.1 0q-0.2 0.1-0.4 0.3-1 0.9-2.1 1.8-6.1 5.4-12.3 10.8-0.6 0.6-1.3 1.1 0 0.1-0.1 0.2c0-0.1 0-0.1-0.1 0.1 0-0.1 0 0 0 0.1 0 0 0.1 0.2 0 0.1 0-0.1-0.1-0.2 0.1 0.1-0.2-0.2 0.1 0.1 0 0z"/>
</svg>