<svg version="1.2" xmlns="http://www.w3.org/2000/svg" viewBox="0 0 151 127" width="53" height="55">
	<title>job</title>
	<style>
		.s0 { fill: #ff7251 } 
	</style>
	<path id="Icon" fill-rule="evenodd" class="s0" d="m106.5 52.9h-7.5v-5c0-3.8-3.1-6.9-6.9-6.9h-18.2c-3.8 0-6.9 3.1-6.9 6.9v5h-7.5c-4.7 0-8.5 3.8-8.5 8.5v31.1c0 4.7 3.8 8.5 8.5 8.5h47c4.7 0 8.5-3.8 8.5-8.5v-31.1c0-4.7-3.8-8.5-8.5-8.5zm-33.8-4.9c0-0.6 0.6-1.2 1.3-1.2h18c0.7 0 1.3 0.6 1.3 1.2v4.9h-20.6zm36.5 44.4c0 1.4-1.2 2.7-2.7 2.7h-47c-1.5 0-2.7-1.3-2.7-2.7v-13.5h18.3v2.2c0 2 1.6 3.6 3.6 3.6h8.8c2 0 3.6-1.6 3.6-3.6v-2.2h18.1zm0-19.4h-52.4v-11.4c0-1.5 1.2-2.7 2.7-2.7h47c1.5 0 2.7 1.2 2.7 2.7z"/>
</svg>