<svg version="1.2" xmlns="http://www.w3.org/2000/svg" viewBox="0 0 157 175" width="53" height="55">
	<title>language</title>
	<style>
		.s0 { fill: #ff7251 } 
	</style>
	<path id="Icon" fill-rule="evenodd" class="s0" d="m57.4 70.3h-4.6l1.4-4.5c0.4-1.5 0.9-4 0.9-4h0.1c0 0 0.5 2.5 0.9 4zm-16.7-21.4h33.6v35.4q1.1 0 2.1 0 8.3 0 16.6 0 5.2 0 10.4 0 0 0 0.1 0 0.1 0 0.2 0c1.4 0.1 2.6 0.7 3.4 1.9 0.9 1.4 0.7 3.3 0.7 4.9q0 4 0 7.9 0 8.6 0 17.2c0 1.8 0.2 3.8-1.2 5.3-1.4 1.6-3.5 1.3-5.4 1.3q-8.5 0-17 0-5.8 0-11.6 0c-0.9 0-1.7-0.7-1.7-1.6q0-2.2 0-4.4 0-9.5 0-19 0-5.2 0-10.4h-30.2c-1.6 0-2.9-1.3-2.9-2.9v-32.7c0-1.6 1.3-2.9 2.9-2.9zm5.5 30.8h2.8c0.6 0 1.2-0.4 1.4-1l1.1-3.9h7.2l1.1 3.9c0.2 0.6 0.8 1 1.4 1h2.8c1 0 1.7-1 1.4-1.9l-7-20.3c-0.2-0.6-0.7-1-1.3-1h-3.9c-0.7 0-1.2 0.4-1.4 1l-6.9 20.3c-0.3 0.9 0.4 1.9 1.3 1.9zm55.7 6.2c0 0.9 0.7 1.6 1.6 1.6q0.1 0 0.1 0 0 0 0 0 0 0 0 0c1.9-0.2 1.9-3 0.1-3.2q-0.1 0-0.2 0-0.1 0-0.1 0c-0.8 0-1.5 0.7-1.5 1.6zm1.7 1.6q0 0-0.1 0-1.9 0-3.9 0-8.3 0-16.5 0-4.5 0-8.9 0 0 1.4 0 2.8 0 9.5 0 19 0 5.1 0 10.3c3.9-0.1 7.8 0 11.7 0q8 0 15.9 0 0.8 0 1.5 0 0.1 0 0.2 0 0 0 0 0c0 0 0.1 0 0.2 0q0.1-0.1 0.2-0.1c0.1 0 0.2-0.1 0.3-0.2 0.1-0.1 0.2-0.2 0.2-0.3 0 0.2 0.1-0.5 0.1-0.3 0 0 0-0.1 0-0.1 0-1.3 0-2.5 0-3.7q0-8.7 0-17.3 0-3.6 0-7.1 0-0.9 0-1.7 0-0.2 0-0.3 0-0.1 0-0.1 0 0 0-0.1c0 0-0.2-0.5-0.1-0.2q0 0 0 0 0 0 0 0 0 0 0 0 0-0.1-0.1-0.2c0 0-0.1-0.1-0.1-0.1q0 0 0 0 0 0-0.2-0.1c0 0-0.1-0.1-0.1-0.1q-0.1 0-0.2-0.1 0 0-0.1 0zm0.4 0.1q-0.1 0-0.1 0 0.1 0 0.1 0zm0.3 0.2q0 0.1 0 0.1 0 0 0-0.1zm0.2 30.9q0 0 0 0 0 0 0 0zm-31.7 0.9q-0.1 0-0.2 0 0.8 0.8 1.6 1.6 0-0.8 0-1.6-0.7 0-1.4 0zm-0.2-32.1q0.8 0 1.6 0 0-0.1 0-0.1h-1.5q-0.1 0-0.1 0.1zm31 0c-0.2-0.1 0.1 0 0 0q0 0 0 0zm0.9 31.2q0 0 0 0 0 0 0 0zm-0.8 0.9q-0.1 0-0.2 0 0.2 0 0.2 0zm-4.5-20.5q0 0 0 0 0 0 0 0zm0.1-0.1c0 0 0 0 0-0.1q0 0 0 0.1zm0.1-0.2c0 0.1 0.1 0.1 0.1 0-0.1 0-0.2 0-0.2 0q0 0 0 0-0.1 0.2-0.1 0.3 0-0.1 0.1-0.1c0-0.1 0-0.2 0.1-0.2zm-0.2 0q0-0.5 0-0.9 0-0.1 0-0.2c-0.1 0-0.2 0-0.2 0q-0.7 0-1.3 0-2.6 0-5.3 0c-0.8 0-1.6-0.8-1.6-1.7q0-0.4 0-0.8c0-0.1 0-0.4 0-0.6-0.2 0-0.5 0-0.6 0 0 0-0.3 0-0.5 0 0 0.2-0.1 0.6-0.1 0.7q0 0.4 0 0.7c0 0.9-0.7 1.7-1.6 1.7q-2.8 0-5.5 0-0.6 0-1.2 0 0 0 0 0 0 0.1-0.1 0.2 0 0.3 0 0.7 0.1 0.1 0.1 0.2 0.1 0 0.2 0 1.1 0 2.1 0 5 0 10 0c1.3 0 1.9 1.4 1.4 2.5-0.9 1.9-2.2 3.6-3.6 5.1-0.6 0.6-1.7 0.6-2.3 0q-0.7-0.7-1.3-1.5-0.3-0.4-0.6-0.8-0.1 0-0.1 0-0.3 0.2-0.5 0.3c-0.1 0.1-0.3 0.2-0.4 0.3 0.3 0.3 0.6 0.8 0.7 0.9q0.6 0.7 1.2 1.4c0.8 0.9 0.5 1.9-0.3 2.6q-0.9 0.6-1.8 1.2-0.4 0.3-0.8 0.6 0 0 0 0 0.2 0.4 0.4 0.8 0.1 0.1 0.2 0.2 0.1-0.1 0.2-0.1 1.6-1.1 3.1-2.2c0.7-0.6 1.5-0.6 2.3 0q1.5 1.2 3.2 2.2 0 0 0.1 0.1 0.1-0.1 0.2-0.2 0.2-0.4 0.4-0.8 0 0-0.1-0.1-0.4-0.2-0.8-0.5-0.9-0.6-1.7-1.2c-0.8-0.7-1.1-1.7-0.3-2.6 1.9-2 3.5-4.4 4.3-7 0.2-0.7 0.8-1.2 1.5-1.2q0.5 0 1 0zm-3.6 12.7q0 0 0 0 0 0 0 0zm-0.2-0.1q0 0 0-0.1 0 0 0 0 0 0 0 0 0 0 0-0.1 0 0.1 0 0.1-0.1 0.1-0.1 0.1c0.1 0.1 0.3 0.2 0.3 0.1 0 0-0.2-0.1-0.2-0.1zm0-0.1q0 0 0 0 0 0 0 0 0 0 0 0zm0.1-0.2q0 0 0 0 0 0 0 0zm-0.8 1.4q0 0.1-0.1 0.1 0 0 0 0 0 0 0 0c0 0.1 0 0.1 0 0q0 0 0 0 0.2 0 0.3-0.1 0 0 0 0 0 0 0 0 0 0 0 0 0.2 0.1 0 0 0 0 0 0-0.1 0-0.2-0.1 0 0.1 0 0.1zm0.2 0q0.1 0.1 0 0 0 0 0 0zm-9.4 0q0 0 0 0 0 0 0 0.1 0 0 0-0.1zm0 0q0 0 0 0c0.2 0-0.1 0 0 0zm0.3 0.1q0 0 0 0c0.1 0.1 0.1 0.1 0 0q0.1 0 0 0 0 0 0 0 0-0.1 0-0.2-0.2 0.1-0.3 0.1c0.1 0.1 0.2 0.1 0.3 0.1zm0 0q0 0 0 0 0 0 0 0 0 0 0 0 0 0-0.1-0.1 0.1 0.1 0.1 0.1zm-0.7-1.2c0-0.1 0-0.1 0-0.2q0 0.1-0.1 0.2 0 0 0.1-0.1c0 0-0.1 0.2-0.1 0.2q-0.2 0.1 0 0 0.1-0.1 0.2-0.1 0 0-0.1 0zm0-0.2q0 0-0.1-0.1 0 0.1 0.1 0.1zm0.9-6.8q0 0 0 0 0 0 0 0zm0 0.2q0 0 0 0 0 0 0 0zm-0.1 0.2q0.1 0 0.3-0.1-0.1-0.2-0.2-0.3c0 0.2-0.1 0.4 0 0.3-0.1 0.1-0.1 0.1-0.1 0.1zm1.5-0.8q0 0 0-0.1 0 0.1 0 0.1zm-0.2 0c0.1 0 0 0-0.1 0q0 0 0.1 0zm-0.1 0q0 0 0 0 0-0.1 0-0.1 0 0 0 0.1zm0.1 0.1q0 0 0 0 0.1-0.1 0.2-0.1c-0.1 0-0.2 0-0.3 0q0 0 0 0 0 0 0 0 0 0 0 0 0.1 0 0.1 0.1zm-6.2-5.3c0 0-0.1 0.1 0 0q0 0 0 0zm0.1 0c0 0 0 0.1 0 0.1 0.1 0.1 0.2 0.2 0.2 0.2 0 0 0-0.2 0-0.3q-0.2 0-0.3 0 0 0 0.1 0zm0 0.1q0 0 0 0c0 0 0.2 0.1 0.1 0q0 0-0.1 0zm0.1 0.2q0 0 0 0 0 0 0 0zm0-1.7c0.1 0 0 0.1 0 0.1-0.1 0.1-0.2 0.2-0.1 0.1q0 0.1-0.1 0.1 0.1 0 0.3 0c0-0.2 0-0.3-0.1-0.3zm0 0.2c0 0-0.2 0.1 0 0q0 0 0 0 0 0 0 0zm-0.2 0.1q0 0 0 0c-0.1-0.1 0 0 0 0zm8.6-3.4c0 0 0 0.1 0 0.1q0 0.1-0.1 0.1 0 0 0 0 0 0 0 0 0 0.1-0.1 0.1 0.1 0 0.3 0 0-0.2-0.1-0.3zm-0.2 0.3q0 0 0 0 0 0 0 0zm1.7 0q0 0 0 0 0 0 0 0zm-0.1-0.1q-0.1 0-0.1 0 0-0.1 0-0.1-0.1-0.1-0.1-0.1 0 0.1 0 0.3 0.2 0 0.3 0c-0.1 0-0.1-0.1-0.2-0.1q0 0 0.1 0zm8.4 3.2q0.1 0 0.1 0 0 0-0.1 0zm-0.1-0.1q0 0 0 0 0 0 0 0zm-0.1-0.2q0 0 0 0 0 0 0 0zm0 1.4q0 0 0.1 0c0.1-0.7 0.7-1.3 1.5-1.3 0.8 0 1.6 0.7 1.7 1.5q0 0.1 0 0.1 0 0.3-0.1 0.5c-0.2 1.3-1.2 2.3-2.5 2.4q-0.3 0.1-0.5 0.1c-0.8 2.1-2 4-3.5 5.8q0.4 0.3 0.8 0.5c0.8 0.6 1.6 1.1 1.9 2.1 0.3 1.3-0.4 2.3-1 3.4-0.3 0.5-0.6 1-1.1 1.3-0.7 0.6-1.8 0.7-2.6 0.4-0.9-0.3-1.7-0.9-2.4-1.4q-0.6-0.5-1.3-1-0.6 0.5-1.2 0.9c-0.7 0.6-1.6 1.3-2.5 1.5-1.5 0.5-2.9-0.3-3.6-1.7-0.7-1.1-1.3-2.1-1-3.4 0.3-1 1.1-1.6 1.9-2.1q0.4-0.2 0.8-0.5-0.3-0.3-0.5-0.6c-0.5-0.6-1.1-1.3-1.3-2.1-0.1-1 0.1-2 0.8-2.7q0.3-0.2 0.6-0.4-1 0-2.1 0-0.6 0-1.1 0c-1.3-0.1-2.5-0.8-2.9-2.1-0.1-0.5-0.1-1.1-0.1-1.7 0-0.6 0-1.2 0.1-1.7 0.3-1.2 1.4-2.1 2.7-2.2 0.6 0 1.3 0 1.9 0q1.8 0 3.7 0 0-0.5 0.1-1c0.4-1 1.2-1.8 2.2-2 0.5-0.1 1-0.1 1.5-0.1 0.5 0 1 0 1.5 0.1 1 0.2 1.9 1 2.2 2q0.2 0.5 0.2 1 0 0 0.1 0 2.6 0 5.1 0c1.4 0 2.8 0.8 3.1 2.3 0.1 0.7 0.1 1.5 0.1 2.3q0 0.1 0 0.1-0.1 0.3-0.1 0.5c-0.4 1.6-3.2 1.4-3.2-0.5q0-0.1 0-0.3zm-6.8-4.4q0.8 0.8 1.7 1.6c0-0.5 0-1 0-1.6q-0.8 0-1.7 0zm-6 1.6q0.8-0.8 1.6-1.6-0.8 0-1.6 0c0 0.6 0 1.1 0 1.6zm2.2 6.1q0.5 0 1.1 0c-0.5-0.7-1-1.2-1.9-1.3-1.2-0.2-2 0.3-3 0.9q-0.3 0.2-0.6 0.4 2.2 0 4.4 0zm5 0q-0.7-1.2-1.4-2.5-0.6 1.3-1.4 2.5 1.4 0 2.8 0zm-4.5 2q1.2 0 2.3 0-0.6-0.7-1.2-1.3-0.5 0.6-1.1 1.3zm1.1-1.3q0.3-0.4 0.6-0.7-0.6 0-1.1 0 0.1 0.1 0.2 0.2 0.2 0.3 0.3 0.5zm-4.4 6.5q0.2-1.3 0.3-2.5-0.7 0.6-1.5 1.1 0.6 0.7 1.2 1.4zm5.6 3.1q-1.2 0-2.3 0 0.6 0.4 1.1 0.8 0.6-0.4 1.2-0.8zm3-5.6q0.1 1.2 0.3 2.5 0.6-0.7 1.2-1.4-0.8-0.5-1.5-1.1zm5.4-5.9q-0.8 0.6-1.6 1.2 0.6 0 1.2 0 0.2-0.6 0.4-1.2zm-4.4 10.3q0 0 0 0 0 0 0 0zm0 0q0 0 0 0 0 0 0.1-0.1-0.1 0.1-0.1 0.1zm0 0.1q0 0 0-0.1 0 0.1 0 0.1zm-0.8 1.3q0 0 0 0 0 0 0 0 0 0 0 0 0 0 0 0zm0.3-0.1q0 0 0 0 0 0 0 0-0.1 0 0 0zm-8.9-7.9q0 0.1 0 0.1 0-0.1 0-0.1zm1.1-0.6q0 0 0 0 0 0 0 0 0 0 0 0zm-5.9-4.9q0.1 0 0.1 0 0 0-0.1 0zm0-1.5q0-0.1 0-0.1c0 0 0 0 0 0.1zm8.3-3.1q0 0 0 0 0 0 0.1-0.1c0 0 0 0-0.1 0.1zm-0.1 0.1q0 0 0 0 0 0 0 0zm1.5-0.2q0 0 0 0.1 0 0 0 0 0-0.1 0-0.1zm8.3 3.3q0.1 0 0.2 0 0 0-0.1-0.1c0 0-0.1-0.1-0.1-0.2q0 0.1 0 0.3zm0.1-0.1c-0.1-0.2 0-0.1 0 0q0 0 0 0z"/>
</svg>