<svg version="1.2" xmlns="http://www.w3.org/2000/svg" viewBox="0 0 175 175" width="53" height="55">
	<title>music</title>
	<style>
		.s0 { fill: #ff7251 } 
	</style>
	<path id="Icon" fill-rule="evenodd" class="s0" d="m122 111.9c-0.7 5.6-6 9.3-11.5 10.1-5.2 0.8-11.3-0.5-14.8-4.8-3.5-4.3-3.1-10.2 1-13.9 4.2-3.8 10.3-4.8 15.7-3.4q1.5 0.4 3 1.2 0-10.6 0-21.3-1.4 0.5-2.9 0.9-12.5 3.8-25 7.6-7.4 2.2-14.8 4.4 0 5.7 0 11.5 0 8.5 0 17 0 0.4-0.1 0.8c-0.7 5.7-6.1 9.5-11.5 10.3-5.3 0.7-11.4-0.6-14.9-4.9-3.4-4.2-3-10.2 1.1-13.9 4.1-3.7 10.3-4.8 15.6-3.4q1.6 0.5 3.1 1.2 0-11.7 0-23.5 0-8.5 0-17c0-1.5 1-2.8 2.4-3.2q3.1-0.9 6.2-1.9 13.3-4 26.6-8 8.3-2.5 16.7-5.1c2.1-0.6 4.2 1.1 4.2 3.3q0 3.4 0 6.8 0 14.8 0 29.7 0 9.3 0 18.7 0 0.4-0.1 0.8zm-56.1 8.6q0-0.1-0.1-0.3c0-0.1-0.1-0.3-0.1-0.4q-0.1-0.1-0.1-0.1-0.2-0.4-0.4-0.7 0 0 0 0-0.4-0.5-0.9-0.9c-0.1 0-0.6-0.4-0.8-0.5q-0.4-0.3-0.8-0.5c0 0-0.3-0.1-0.4-0.1-0.5-0.2-2-0.6-2.6-0.7-1.7-0.2-3.3-0.1-5.1 0.5 0 0-0.4 0.2-0.6 0.2-0.1 0.1-0.2 0.1-0.2 0.1q-0.6 0.3-1.2 0.7-0.2 0.1-0.5 0.3c0 0.1 0 0.1-0.1 0.1q-0.4 0.4-0.7 0.8-0.1 0-0.1 0.1 0 0-0.1 0.1-0.1 0.2-0.3 0.5c0 0 0 0.1-0.1 0.2q0 0.1 0 0.2-0.1 0.2-0.2 0.5 0 0 0 0 0 0.4 0 0.8c0.1 0 0.2 0.5 0.2 0.8q0.2 0.2 0.3 0.4 0.1 0.3 0.3 0.5c0 0 0 0 0.1 0q0.3 0.4 0.7 0.8 0.1 0.1 0.1 0.1 0 0 0.1 0.1 0.3 0.2 0.6 0.3 0.6 0.4 1.1 0.6c0.1 0 0.7 0.3 0.8 0.3q0.6 0.2 1.2 0.3c1.6 0.3 3.5 0.3 5.1-0.2 1.1-0.2 1.3-0.3 2.2-0.8q0.5-0.3 0.9-0.6 0 0 0.1 0 0-0.1 0-0.1 0.3-0.2 0.5-0.4 0.2-0.3 0.4-0.5 0.2-0.3 0.3-0.5c0.1 0 0.1-0.1 0.2-0.2 0-0.2 0.2-0.6 0.2-0.7q0-0.1 0-0.1 0.1-0.3 0.1-0.5c0-0.2-0.1-0.5-0.1-0.5zm49.5-60.1q-0.9 0.3-1.9 0.5-13.3 4.1-26.6 8.1-7.1 2.2-14.2 4.3 0 1.9 0 3.7 0 4.4 0 8.7 1.5-0.4 3-0.9 12.6-3.8 25.1-7.6 7.3-2.1 14.6-4.3 0-6.3 0-12.5zm0 49.9q-0.1-0.2-0.1-0.3c0-0.1-0.1-0.3-0.2-0.5q0 0 0-0.1-0.2-0.3-0.4-0.6 0 0 0 0-0.5-0.5-1-0.9c0 0-0.6-0.5-0.7-0.5q-0.4-0.3-0.9-0.5c0 0-0.3-0.1-0.3-0.2-0.6-0.2-2-0.6-2.6-0.6-1.7-0.3-3.4-0.1-5.1 0.5-0.1 0-0.5 0.1-0.6 0.2-0.1 0-0.3 0.1-0.2 0.1q-0.7 0.3-1.2 0.6-0.3 0.2-0.5 0.4c-0.1 0-0.1 0-0.1 0.1q-0.4 0.4-0.8 0.8 0 0 0 0-0.1 0.1-0.1 0.1-0.1 0.3-0.3 0.5c0 0.1-0.1 0.2-0.1 0.2q-0.1 0.1-0.1 0.2-0.1 0.3-0.1 0.6 0 0 0 0 0 0.4 0 0.7c0 0.1 0.1 0.6 0.2 0.8q0.1 0.3 0.2 0.5 0.2 0.2 0.3 0.4c0.1 0.1 0.1 0.1 0.1 0.1q0.4 0.4 0.8 0.8 0.1 0.1 0.1 0.1 0 0 0.1 0 0.3 0.2 0.6 0.4 0.5 0.3 1.1 0.6c0 0 0.6 0.2 0.8 0.3q0.6 0.2 1.2 0.3c1.5 0.3 3.4 0.3 5.1-0.2 1.1-0.3 1.2-0.3 2.1-0.8q0.5-0.3 1-0.6 0-0.1 0-0.1 0 0 0.1 0 0.2-0.2 0.4-0.4 0.3-0.3 0.5-0.5 0.1-0.3 0.3-0.5c0-0.1 0.1-0.2 0.1-0.3 0.1-0.1 0.2-0.5 0.3-0.7q0 0 0-0.1 0-0.2 0-0.4c0-0.2-0.1-0.6 0-0.5z"/>
</svg>