<svg version="1.2" xmlns="http://www.w3.org/2000/svg" viewBox="0 0 145 169" width="53" height="55">
	<title>profile</title>
	<style>
		.s0 { fill: #ff7251 } 
	</style>
	<path id="Icon" fill-rule="evenodd" class="s0" d="m91.9 69.5c0-5.2-4.2-9.4-9.4-9.4-5.2 0-9.4 4.2-9.4 9.4 0 5.2 4.2 9.4 9.4 9.4 5.2 0 9.4-4.2 9.4-9.4zm-24.4 0c0-8.3 6.7-15 15-15 8.3 0 15 6.7 15 15 0 8.3-6.7 15-15 15-8.3 0-15-6.7-15-15zm-5.5 39.3h41c-1.1-7.4-7.5-13.1-15.1-13.1h-10.8c-7.6 0-14 5.7-15.1 13.1zm-5.7 2.2c0-11.5 9.3-20.9 20.8-20.9h10.8c11.5 0 20.8 9.4 20.8 20.9 0 1.9-1.5 3.5-3.4 3.5h-45.6c-1.9 0-3.4-1.6-3.4-3.5z"/>
</svg>