<svg version="1.2" xmlns="http://www.w3.org/2000/svg" viewBox="0 0 175 169" width="53" height="55">
	<title>reference</title>
	<style>
		.s0 { fill: #ff7251 } 
	</style>
	<path id="Icon" class="s0" d="m105.8 66.4q0.4 0 0.8 0c0.2 0.1 0.3 0.1 0.4 0.1-0.5 0-0.4-0.1-0.2 0q0.9 0.1 1.7 0.4c0.1 0 0.6 0.1 0.6 0.2 0-0.1-0.5-0.2-0.1 0q0.2 0.1 0.4 0.1 0.7 0.4 1.3 0.8c0 0 0.5 0.3 0.1 0.1-0.3-0.2 0.1 0.1 0.1 0.1q0.3 0.2 0.5 0.5 0.3 0.2 0.5 0.5 0.2 0.1 0.3 0.3 0.1 0.1 0.1 0.1 0.3 0.3-0.1-0.1c0.2 0 0.7 1 0.8 1.2q0.2 0.3 0.3 0.6c0 0 0.2 0.3 0.2 0.3q-0.3-0.5-0.1-0.1 0 0.1 0.1 0.1 0.2 0.8 0.4 1.5 0 0.2 0.1 0.4c0 0.5 0.1 0-0.1-0.1 0.1 0.1 0.1 0.8 0.1 0.9 0 0.2 0.1 1.5-0.1 1.6 0.1 0 0.2-0.7 0.1-0.2q-0.1 0.2-0.1 0.4-0.1 0.4-0.2 0.8-0.1 0.4-0.2 0.8c-0.1 0-0.1 0.3-0.2 0.3 0.1 0 0.3-0.5 0.1-0.2q-0.4 0.8-0.8 1.5c-0.1 0.1-0.3 0.5-0.4 0.5 0.2 0 0.4-0.4 0.1 0q-0.2 0.1-0.3 0.3-0.5 0.5-1.1 1c-0.1 0.1-0.4 0.3-0.1 0.1 0.4-0.2-0.1 0.1-0.1 0.1q-0.3 0.2-0.6 0.4-0.3 0.2-0.7 0.4-0.1 0-0.3 0.1-0.1 0.1-0.2 0.1-0.3 0.1 0.2-0.1c-0.1 0.2-1.2 0.4-1.4 0.5q-0.4 0.1-0.7 0.1c-0.1 0-0.6 0-0.2 0.1 0.4 0-0.1 0-0.2 0q-0.8 0-1.5 0-0.2 0-0.5-0.1c-0.3 0 0.7 0.2 0.1 0.1q-0.4-0.1-0.8-0.2c-0.2-0.1-1.4-0.3-1.5-0.5 0 0 0.6 0.3 0.2 0.1q-0.2-0.1-0.3-0.2-0.4-0.2-0.8-0.4-0.3-0.2-0.6-0.4c0 0-0.3-0.2-0.3-0.2 0 0.1 0.4 0.3 0.1 0.1q-0.6-0.5-1.1-1.1c-0.1-0.1-0.6-0.7-0.4-0.4 0.2 0.3-0.2-0.3-0.3-0.4q-0.4-0.7-0.7-1.4c-0.2-0.4-0.1 0 0 0.1 0 0-0.1-0.3-0.1-0.3q-0.1-0.4-0.2-0.7-0.1-0.4-0.2-0.8-0.1-0.1-0.1-0.3c0-0.3 0-0.6 0 0 0-0.5-0.1-1.1-0.1-1.6q0.1-0.3 0.1-0.7c0-0.6-0.1 0.4 0 0.1q0-0.3 0.1-0.5 0.1-0.9 0.4-1.7c0.2-0.5 0 0.1 0 0.1 0 0 0.2-0.4 0.2-0.4q0.2-0.4 0.4-0.8 0.2-0.3 0.5-0.7c0.2-0.4-0.1-0.1-0.1 0 0 0 0.3-0.3 0.3-0.3q0.6-0.7 1.2-1.2c0 0 0.2-0.2 0.3-0.2q-0.5 0.3-0.2 0.1 0.1 0 0.2-0.1 0.3-0.2 0.7-0.5 0.4-0.2 0.8-0.4c0 0 0.3-0.2 0.3-0.1q-0.1 0-0.3 0.1 0.2-0.1 0.4-0.1 0.8-0.3 1.6-0.5 0.1 0 0.3 0c0.6-0.1-0.5 0 0 0q0.5-0.1 1.1-0.1c1.3 0 2.5-1.1 2.5-2.5-0.1-1.3-1.1-2.5-2.5-2.5-5.7 0-10.6 3.6-12.5 8.9-1.9 5-0.2 11.1 3.9 14.4 2.2 1.9 4.8 2.9 7.7 3.2 2.7 0.2 5.5-0.5 7.8-1.9 4.7-3 7.1-8.6 6-14.1-1.1-6.1-6.8-10.5-12.9-10.5-1.3 0-2.6 1.2-2.5 2.5 0 1.4 1.1 2.5 2.5 2.5zm-14.4 38q0 0-0.1 0 0.9 2.1 1.8 4.3c2.4-2.2 4.3-4.9 5.4-8 1.2-3.3 1.4-6.9 0.8-10.4q-0.6 1.5-1.1 2.9c0.1-0.1 0.4-0.2 0 0q0.1-0.1 0.3-0.1 0.3-0.2 0.7-0.3 0.8-0.3 1.6-0.4c0.1 0 0.8-0.1 0.3-0.1q0.4 0 0.8-0.1 0.5 0 1 0 1.3 0 2.5 0 1.5 0 3 0 0.6 0 1.2 0 0.3 0.1 0.6 0.1c0.5 0-0.5-0.1 0.1 0q0.6 0.1 1.3 0.3 0.5 0.1 1 0.3 0.3 0.1 0.6 0.2c0.2 0.1 0.1-0.1-0.2-0.1 0.1 0 0.3 0.1 0.3 0.2q1.1 0.5 2.1 1.1 0.3 0.2 0.5 0.4c0.3 0.2-0.4-0.4 0.1 0q0.4 0.4 0.9 0.9 0.4 0.4 0.8 0.8 0.1 0.2 0.3 0.4c0.3 0.3-0.1-0.1-0.1-0.1 0.1 0 0.2 0.2 0.2 0.2q0.7 1 1.2 2.1 0.2 0.2 0.3 0.5c0.2 0.4-0.2-0.5 0 0.1q0.2 0.6 0.4 1.2 0.2 0.6 0.3 1.1 0 0.3 0.1 0.6c0.1 0.4 0-0.1 0-0.2q0 0.2 0 0.3 0.1 0.7 0.1 1.3c0 0-0.1 0.3 0 0.3-0.1 0 0.1-0.5 0-0.2q0 0.1-0.1 0.2c-0.1 0.6 0.2-0.3 0.1 0-0.1 0-0.2 0.2-0.2 0.2-0.1-0.1 0.4-0.4 0.1-0.2q-0.1 0.1-0.2 0.2c-0.2 0.3 0.4-0.3 0.2-0.1-0.1 0-0.3 0.1-0.3 0.1 0 0 0.6-0.1 0.2 0q-0.1 0-0.3 0c-0.2 0.1 0.6 0 0.1 0q-0.1 0-0.1 0-0.6 0-1.1 0-2.3 0-4.7 0-6.8 0-13.7 0c-3 0-5.9-0.1-8.9 0q-0.1 0-0.2 0c-1.3 0-2.5 1.2-2.5 2.5 0.1 1.4 1.1 2.5 2.5 2.5q4.1 0 8.1 0 7.2 0 14.4 0 2.5 0 4.9 0 0.6 0 1.2 0c1.4 0 2.9-0.5 3.9-1.6 1.8-1.8 1.7-4.3 1.3-6.7-0.3-1.8-0.9-3.6-1.8-5.2-1.7-3.1-4.6-5.8-7.8-7.2-1.9-0.8-3.9-1.3-5.9-1.5-0.9 0-1.8 0-2.7 0-2.6 0-5.3-0.1-7.9 0.4-1.2 0.3-2.3 0.7-3.5 1.2-1 0.5-1.3 1.9-1.1 2.9 0 0 0.1 0.8 0 0.2q0.1 0.3 0.1 0.6 0 0.6 0.1 1.2c0 0.7-0.1 1.4-0.1 2.1-0.1 0.5 0-0.3 0 0.1q-0.1 0.2-0.1 0.5-0.1 0.5-0.2 1-0.3 1-0.6 2-0.1 0.2-0.2 0.4c-0.1 0.3 0.2-0.4 0 0q-0.2 0.5-0.5 0.9-0.4 0.9-1 1.7-0.1 0.2-0.3 0.4c0 0.1-0.3 0.6 0 0.1-0.2 0.3-0.4 0.5-0.6 0.8q-0.7 0.7-1.5 1.4c-1.7 1.5-0.3 4.3 1.7 4.3q0.1 0 0.1 0c1.3 0 2.6-1.1 2.5-2.5 0-1.3-1.1-2.5-2.5-2.5zm-23.5-11.6q0-0.4 0-0.9c0 0 0-0.5 0.1-0.5-0.1 0.1-0.1 0.5 0 0.2q0.1-1 0.4-1.8c0-0.1 0.2-0.8 0.3-0.8q-0.1 0.1-0.1 0.3 0-0.2 0.1-0.3 0.1-0.2 0.1-0.3 0.4-0.8 1-1.6c0 0 0.3-0.5 0.1-0.1-0.3 0.3 0-0.1 0.1-0.2q0.2-0.3 0.5-0.6 0.3-0.3 0.6-0.5 0.2-0.2 0.3-0.3 0.1-0.1 0.2-0.2 0.3-0.2-0.1 0.1c0-0.1 0.6-0.4 0.7-0.4q0.3-0.3 0.7-0.5 0.3-0.2 0.7-0.3c0.1-0.1 0.5-0.2 0.1-0.1-0.4 0.1 0.3-0.1 0.4-0.1q0.8-0.3 1.6-0.5 0.2 0 0.3 0c0.2-0.1 0.7 0 0 0 0.4 0 0.7-0.1 1.1-0.1q0.4 0 0.9 0c0.1 0 0.8 0 0.8 0.1 0 0-0.6-0.2-0.1-0.1q0.2 0.1 0.5 0.1 0.4 0.1 0.9 0.2 0.4 0.2 0.8 0.3c0 0 0.3 0.1 0.3 0.2 0-0.2-0.4-0.3 0-0.1q0.8 0.4 1.5 0.9c0.1 0 0.6 0.3 0.7 0.4q-0.2-0.1-0.3-0.2 0.2 0.1 0.3 0.2 0.1 0.2 0.2 0.3 0.7 0.6 1.3 1.2 0 0.1 0.1 0.2 0.2 0.3-0.1-0.1c0 0 0.2 0.2 0.2 0.2q0.2 0.4 0.4 0.7 0.3 0.4 0.4 0.7 0.2 0.2 0.3 0.5 0 0 0 0.1 0.2 0.4 0-0.1c0.1 0 0.2 0.7 0.3 0.8q0.1 0.4 0.2 0.8 0.1 0.4 0.2 0.8c0 0.1 0 0.6 0 0.2 0-0.4 0 0.2 0 0.3q0.1 0.9 0 1.8 0 0.2 0 0.4c0 0.4 0.1-0.6 0-0.1q-0.1 0.5-0.2 1-0.1 0.4-0.2 0.8c-0.1 0.2-0.2 0.8-0.3 0.8 0 0 0.2-0.4 0-0.1q-0.1 0.2-0.2 0.4-0.2 0.5-0.5 0.9-0.2 0.3-0.4 0.7c0 0-0.2 0.2-0.2 0.2q0.1-0.1 0.2-0.2-0.1 0.1-0.2 0.3-0.6 0.6-1.2 1.2-0.2 0.1-0.3 0.3c-0.1 0-0.5 0.3-0.2 0.1 0.4-0.3-0.1 0-0.1 0.1q-0.2 0.1-0.3 0.2-0.8 0.5-1.5 0.8-0.1 0.1-0.2 0.1-0.4 0.2 0.1-0.1c0 0.1-0.2 0.2-0.3 0.2q-0.4 0.1-0.8 0.2-0.4 0.1-0.8 0.2-0.2 0.1-0.5 0.1-0.1 0.1-0.2 0.1-0.3 0 0.2-0.1c-0.1 0.1-0.7 0.1-0.8 0.1q-0.5 0-0.9 0-0.5 0-0.9 0c-0.6-0.1 0.6 0.1 0 0q-0.3-0.1-0.5-0.1-1-0.2-1.9-0.6c-0.4-0.1 0 0.1 0.1 0.1-0.1 0-0.4-0.2-0.5-0.3q-0.5-0.2-0.9-0.4-0.4-0.3-0.8-0.5 0-0.1-0.1-0.1-0.3-0.3 0.1 0.1c0 0-0.3-0.3-0.3-0.4q-0.8-0.6-1.4-1.3c0-0.1-0.2-0.3-0.2-0.3q0.3 0.4 0.1 0.1-0.1-0.1-0.2-0.3-0.3-0.3-0.5-0.7-0.2-0.4-0.4-0.8c-0.1-0.1-0.3-0.4-0.2-0.5q0.2 0.5 0.1 0.2-0.1-0.1-0.1-0.2-0.4-0.9-0.6-1.9 0-0.2 0-0.4-0.1-0.4 0 0.2 0-0.2-0.1-0.4 0-0.5 0-1c0-1.3-1.1-2.6-2.5-2.5-1.4 0.1-2.5 1.1-2.5 2.5 0 6.2 3.9 11.6 9.7 13.7 5.5 2.1 12.2 0.2 15.9-4.3 2-2.4 3.1-5.2 3.4-8.4 0.3-2.9-0.5-6-2-8.5-3.3-5.3-9.5-7.9-15.5-6.7-6.7 1.3-11.5 7.5-11.5 14.2 0 1.3 1.2 2.6 2.5 2.5 1.4-0.1 2.5-1.1 2.5-2.5zm-12 32.7q0-0.5 0-1 0-0.3 0-0.5c0.1-0.1 0.1-0.8 0.1-0.4-0.1 0.4 0-0.1 0-0.2q0.1-0.3 0.1-0.5 0.1-0.6 0.3-1.1 0.1-0.5 0.3-1 0.1-0.2 0.1-0.4c0.1-0.1 0.3-0.7 0.2-0.4-0.2 0.4 0-0.1 0.1-0.2q0.1-0.2 0.2-0.4 0.2-0.5 0.5-1 0.2-0.4 0.5-0.8 0.1-0.2 0.3-0.4c0.1-0.1 0.3-0.6 0.2-0.3-0.2 0.3 0.1-0.1 0.1-0.2q0.2-0.2 0.4-0.4 0.3-0.4 0.7-0.7 0.7-0.8 1.5-1.4c0.2-0.2-0.2 0.2-0.2 0.1 0 0 0.2-0.1 0.2-0.1q0.2-0.1 0.4-0.3 0.5-0.3 0.9-0.6 0.5-0.2 1-0.5c0.1-0.1 0.7-0.5 0.9-0.4 0 0-0.5 0.2-0.2 0.1q0.1-0.1 0.2-0.1 0.3-0.1 0.5-0.2 0.5-0.2 1-0.3c0.7-0.2 1.4-0.3 2.1-0.5 0 0-0.5 0.1-0.2 0.1q0.1 0 0.2-0.1 0.3 0 0.5 0 0.6 0 1.2-0.1 1.4 0 2.9 0 5.5 0 10.9 0 0.5 0 1 0 0.9 0.1 1.8 0.1 0.1 0.1 0.3 0.1c0 0-0.6-0.1-0.3-0.1q0.3 0.1 0.5 0.1 0.6 0.1 1.1 0.3 1 0.2 2 0.6c0 0 0.2 0.1 0.2 0.1 0 0-0.4-0.2-0.2-0.1q0.2 0.1 0.5 0.2 0.4 0.2 0.9 0.5 0.9 0.5 1.7 1.1c0.1 0 0.2 0.1 0.2 0.1 0 0.1-0.4-0.3-0.1-0.1q0.1 0.2 0.3 0.3 0.4 0.4 0.8 0.7 0.8 0.7 1.4 1.5c0.1 0.1 0.3 0.5 0.2 0.2-0.2-0.3 0.1 0.1 0.1 0.2q0.3 0.5 0.6 0.9 0.6 0.9 1 1.8c0 0.1 0.2 0.6 0.1 0.2-0.1-0.3 0.1 0.2 0.1 0.3q0.2 0.5 0.3 1 0.3 1 0.5 2.1c0 0.1 0.1 0.6 0.1 0.2-0.1-0.4 0 0.2 0 0.3q0.1 0.6 0.1 1.1 0 0.3 0 0.5 0 0.2 0 0.3c0 0.3 0-0.2 0-0.2 0 0-0.1 0.4-0.1 0.4-0.1 0 0.2-0.4 0.1-0.2-0.1 0.1-0.2 0.2-0.2 0.3-0.1 0.2 0.1-0.2 0.1-0.2 0.1 0-0.1 0.2-0.1 0.2q-0.1 0.1-0.2 0.1c-0.2 0.3 0 0 0 0.1 0-0.1 0.3-0.2 0-0.1-0.1 0.1-0.1 0.1-0.2 0.2-0.2 0.1 0.2-0.2 0.2-0.1 0 0-0.3 0.1-0.3 0.1-0.4 0.1 0.5 0 0 0q-0.1 0-0.2 0 0 0 0 0-0.1 0-0.2 0-0.4 0-0.8 0-1.5 0-3.1 0-5.1 0-10.2 0-6.2 0-12.4 0-5.2 0-10.4 0c-1.5 0-3 0-4.5 0-0.3 0 0.2 0 0.2 0 0 0-0.2 0-0.2-0.1 0 0-0.3 0-0.3 0 0-0.1 0.5 0.2 0.3 0.1-0.1-0.1-0.2-0.1-0.3-0.2-0.2-0.1 0.1 0 0 0.1 0.1-0.1 0.2 0.2 0 0q0-0.1-0.1-0.2c0 0-0.2-0.2-0.2-0.2 0.1 0 0.3 0.4 0.2 0.2-0.1-0.1-0.1-0.2-0.2-0.2 0-0.1-0.1-0.2 0 0 0.2 0.1 0.1 0.2 0 0 0-0.1 0-0.2 0-0.3-0.2-0.2 0.1 0.3 0 0.3 0 0 0-0.4 0-0.4-0.1-1.3-1.2-2.5-2.5-2.5-1.4 0.1-2.6 1.1-2.5 2.5 0 3.3 2.6 5.9 5.9 5.9q1 0 2 0 4.7 0 9.4 0 6.4 0 12.8 0 5.8 0 11.6 0c1.8 0 3.7 0 5.5 0q2.2 0 3.9-1.5c1.6-1.3 2.1-3.3 2-5.2-0.2-3.3-1.2-6.5-2.9-9.3-3.5-5.5-9.7-9-16.2-9.1q-4.7 0-9.4 0c-3.8 0-7.7-0.2-11.4 1-6.1 2-11 7.1-12.6 13.4-0.4 1.6-0.6 3.2-0.6 4.8 0 1.4 1.1 2.6 2.5 2.6 1.3-0.1 2.5-1.1 2.5-2.6z"/>
</svg>