<svg version="1.2" xmlns="http://www.w3.org/2000/svg" viewBox="0 0 89 93" width="53" height="55">
	<title>skill</title>
	<style>
		.s0 { fill: #ff7251 } 
	</style>
	<path id="Icon" fill-rule="evenodd" class="s0" d="m78.7 74.6c0 1-0.9 1.9-2 1.9h-53.7c-3.9 0-7-3.1-7-7v-51c0-1.1 0.9-2 2-2 1 0 1.9 0.9 1.9 2v49.8c0 2.4 1.9 4.3 4.3 4.3h52.5c1.1 0 2 0.9 2 2zm-47.4-50.5h25.9c3.2 0 5.8 2.6 5.8 5.8 0 3.3-2.6 5.9-5.8 5.9h-25.9c-3.3 0-5.9-2.6-5.9-5.9 0-3.2 2.6-5.8 5.9-5.8zm27.8 5.8c0-1-0.9-1.9-1.9-1.9h-25.9c-1.1 0-2 0.9-2 1.9 0 1.1 0.9 2 2 2h25.9c1 0 1.9-0.9 1.9-2zm-27.8 25.1h18.4c3.3 0 5.9 2.6 5.9 5.8 0 3.3-2.6 5.9-5.9 5.9h-18.4c-3.3 0-5.9-2.6-5.9-5.9 0-3.2 2.6-5.8 5.9-5.8zm20.4 5.8c0-1-0.9-1.9-2-1.9h-18.4c-1.1 0-2 0.9-2 1.9 0 1.1 0.9 2 2 2h18.4c1.1 0 2-0.9 2-2zm-20.4-21.3h37.2c3.3 0 5.9 2.6 5.9 5.9 0 3.2-2.6 5.9-5.9 5.9h-37.2c-3.3 0-5.9-2.7-5.9-5.9 0-3.3 2.6-5.9 5.9-5.9zm39.2 5.9c0-1.1-0.9-2-2-2h-37.2c-1.1 0-2 0.9-2 2 0 1.1 0.9 2 2 2h37.2c1.1 0 2-0.9 2-2z"/>
</svg>