<svg version="1.2" xmlns="http://www.w3.org/2000/svg" viewBox="0 0 181 229" width="53" height="55">
	<title>traveling</title>
	<style>
		.s0 { fill: #ff7251 } 
	</style>
	<path id="Icon" fill-rule="evenodd" class="s0" d="m147.9 155.6c0 1.8-1.5 3.3-3.3 3.3h-105.9c-1.9 0-3.4-1.5-3.4-3.3 0-1.8 1.5-3.3 3.4-3.3h105.9c1.8 0 3.3 1.5 3.3 3.3zm-6.9-48.2c-3.3 3.3-7.3 5.5-11.4 7.6q-6 3.1-11.9 6.1-7.9 4-15.7 7.9-6.5 3.3-13 6.7c-3.6 1.8-7 3.8-11.1 3.8-4.2 0.1-8.4 0.1-12.6 0.1q-3.6 0-7.3 0-0.8 0-1.6 0c-2.6-0.1-5.1-1.1-6.9-3q-3.4-3.7-6.9-7.4c-1.8-2.1-3.8-4.1-5.6-6.2-1.7-1.9-2.4-4.5-1.6-7 0.5-1.7 1.8-3.3 3.5-4.2 1.5-0.8 3.1-1.6 4.7-2.4q0.9-0.4 1.7-0.8 3.4-1.7 6.9 0 1.6 0.8 3.2 1.6 3.3 1.6 6.5 3.3 0 0 0-0.1 4.3-2.1 8.5-4.2-5.6-3.5-11.2-7-3.7-2.4-7.4-4.7c-1.7-1.1-3-2.5-3.3-4.5-0.7-3.4 0.9-6.5 4-8q4.7-2.4 9.4-4.8 0.4-0.2 0.8-0.5c1.6-0.7 3.2-1 5-0.7 0.6 0.2 1.1 0.5 1.7 0.7q0.5 0.2 1 0.4 9.8 3.7 19.7 7.4 6.6 2.4 13.2 4.9 6.5-3.2 12.9-6.5c2.8-1.4 5.7-2.8 8.8-3.6 5.5-1.4 11.6-1.4 16.9 1 3.8 1.7 6.4 5.6 6.3 9.9-0.2 5.4-3.5 10.5-7.2 14.2zm-62.2 23.8q-0.1 0-0.3 0 0.1 0 0.3 0zm-35.9-12.1q0 0 0 0 0 0 0 0zm96-28q-0.2-0.1-0.4-0.3c-0.4-0.2-1.4-0.5-0.1-0.1-0.8-0.2-1.5-0.5-2.3-0.7q-0.4-0.1-0.9-0.1-0.2-0.1-0.4-0.1 0.3 0 0.6 0.1c-0.4-0.2-1.2-0.1-1.6-0.2q-1.5-0.1-3.1 0-0.6 0.1-1.1 0.1 0 0 0 0.1-0.8 0.1-1.6 0.3-1.6 0.3-3.1 0.8c-0.5 0.2-1.1 0.4-1.6 0.6-0.2 0.1-0.3 0.2-0.3 0.2q-0.3 0.1-0.6 0.3-0.4 0.1-0.7 0.3-0.7 0.4-1.4 0.7-5.8 3-11.7 6c-1.1 0.5-2.3 1.2-3.4 1.7-1.7 0.7-2.7 0.2-4.2-0.4q-11.8-4.4-23.6-8.8-4.8-1.8-9.6-3.6-0.5-0.2-0.9-0.4-0.1 0-0.2-0.1c-0.1 0-0.3-0.1-0.5-0.2q-0.2 0.1-0.3 0.2-1.4 0.6-2.7 1.3-2.6 1.3-5.2 2.7c1.4 0.9 2.9 1.9 4.3 2.8q9.3 5.8 18.6 11.6c2.5 1.6 2.9 5.8 0 7.2q-0.2 0.1-0.3 0.2c-4.4 2.3-8.8 4.4-13.2 6.7q-1.3 0.6-2.6 1.3-0.4 0.2-0.7 0.3c-1.5 0.8-2.8 0.8-4.3 0.1-1.7-0.8-3.4-1.7-5.1-2.6q-3-1.5-6-3-1.4 0.8-2.9 1.5-0.8 0.4-1.6 0.9c0.7 0.8 1.5 1.7 2.2 2.5q4.5 4.9 8.9 9.7 0.2 0.2 0.3 0.3 0.1 0.1 0.2 0.1-0.1 0-0.1 0 0 0 0 0 0 0 0 0 0 0 0 0c0 0 0.1 0 0.2 0.1q0.1 0 0.1 0c-0.1 0-0.1 0 0.1 0.1 0.1 0 0.1 0 0 0q0.1 0 0.2 0 0.1 0 0.1 0 0 0 0 0 0 0 0 0 0 0 0.1 0 0.6 0 1.2 0 6.3 0 12.7-0.1 2.9 0 5.8 0 0.7 0 1.4 0 0.4 0 0.8 0 0.2 0 0.4 0c0.2-0.1 0.3-0.1 0.4-0.1 0.3-0.1 1.2-0.2 1.5-0.5 0 0-0.9 0.4-0.2 0q0.1 0 0.1 0 0.1 0 0.2-0.1 0.4-0.2 0.8-0.4 1.5-0.8 3-1.5 5.2-2.7 10.3-5.3 12.5-6.3 25-12.6 3.7-1.9 7.4-3.8 1.1-0.5 2.1-1.1 1.4-0.8 2.7-1.7 0.2-0.1 0.4-0.3 0.1 0 0.2-0.1c0.4-0.2 0.7-0.6 1-0.8q1.1-1 2.2-2.2 0.4-0.5 0.9-1.1 0.2-0.2 0.4-0.5 1-1.4 1.7-2.9 0.2-0.3 0.3-0.6 0.2-0.6 0.4-1.2 0.1-0.3 0.2-0.6c-0.1 0.1 0-0.1 0-0.3q0-0.1 0-0.1 0.1-0.2 0.1-0.3 0 0.1-0.1 0.2 0.1-0.1 0.1-0.3c0-0.3-0.1-0.7-0.1-0.7q0-0.1-0.1-0.2 0 0 0-0.1-0.1-0.2-0.3-0.4 0-0.1-0.1-0.1 0-0.1-0.1-0.1 0-0.1-0.2-0.2-0.1-0.2-0.3-0.3 0.1 0.1 0.2 0.2 0 0 0 0zm-0.2-0.2q0 0 0 0 0 0 0 0zm1.1 1.4q0 0.1 0.1 0.7 0-0.4-0.1-0.7zm-0.6-0.9c0.1 0 0 0-0.3-0.3q0.1 0 0.1 0.1 0.1 0.1 0.2 0.2zm-83.2 39.8q-0.1 0-0.1 0 0 0-0.1-0.1 0 0 0 0 0.1 0 0.2 0.1zm0.1 0q0 0 0 0.1 0 0 0 0-0.1-0.1-0.1-0.1 0 0 0.1 0zm-0.1 0q0.1 0 0.1 0 0 0 0 0-0.1 0-0.1 0zm0.4 0.1q-0.1 0-0.1 0-0.1-0.1-0.2-0.1 0.2 0 0.3 0.1zm83.4-38q0 0.1 0 0.1 0 0.2 0 0.4 0-0.1 0-0.5zm-70.2-13.5q-0.1 0-0.2-0.1-0.3-0.1-0.5-0.2c-0.1 0 0.8 0.3 0.7 0.3z"/>
</svg>